<svg width="401" height="391" viewBox="0 0 401 391" fill="none" xmlns="http://www.w3.org/2000/svg">
<g style="mix-blend-mode:lighten">
<path d="M200.509 249.171C201.812 249.171 203.06 248.896 204.002 248.348L282.658 202.863C283.676 202.27 284.235 201.437 284.235 200.494C284.235 199.408 283.468 198.344 282.132 197.565L204.528 152.694C202.151 151.323 198.669 151.191 196.588 152.387L117.932 197.872C116.914 198.464 116.355 199.298 116.355 200.241C116.355 201.327 117.122 202.391 118.458 203.17L196.062 248.041C197.354 248.787 198.964 249.16 200.509 249.16V249.171ZM203.4 247.295C201.713 248.271 198.636 248.129 196.675 246.988L119.071 202.117C118.14 201.579 117.582 200.877 117.582 200.252C117.582 199.627 118.107 199.188 118.545 198.936L197.201 153.451C198.877 152.485 201.965 152.617 203.925 153.758L281.53 198.629C282.461 199.166 283.019 199.868 283.019 200.494C283.019 201.119 282.494 201.557 282.056 201.81L203.4 247.295Z" fill="#8686F2"/>
</g>
<path opacity="0.5" d="M292.832 254.403C293.04 254.403 293.248 254.293 293.358 254.095C293.522 253.799 293.424 253.426 293.139 253.262L243.451 224.536C243.166 224.371 242.782 224.47 242.618 224.755C242.454 225.051 242.553 225.424 242.837 225.589L292.526 254.315C292.624 254.37 292.723 254.403 292.832 254.403Z" fill="url(#paint0_linear_31_4931)"/>
<path opacity="0.5" d="M107.867 254.238C107.977 254.238 108.075 254.216 108.174 254.15L157.588 225.578C157.884 225.413 157.983 225.04 157.807 224.744C157.643 224.448 157.26 224.349 156.975 224.525L107.572 253.097C107.276 253.262 107.177 253.635 107.353 253.931C107.462 254.128 107.67 254.238 107.878 254.238H107.867Z" fill="url(#paint1_linear_31_4931)"/>
<path opacity="0.5" d="M200.498 350.199C202.502 350.199 204.506 349.684 206.291 348.642C226.541 336.884 293.993 297.837 295.603 297.113C295.931 297.014 296.085 296.685 295.997 296.367C295.91 296.049 295.548 295.863 295.22 295.961C294.168 296.268 206.565 347.073 205.678 347.589C202.48 349.442 198.504 349.442 195.306 347.589L106.214 295.874C105.929 295.709 105.556 295.797 105.381 296.093C105.217 296.389 105.316 296.762 105.6 296.926L194.693 348.642C196.489 349.684 198.493 350.199 200.498 350.199Z" fill="url(#paint2_linear_31_4931)"/>
<path d="M116.968 167.084V176.758L200.498 225.051L284.038 176.758V167.084H116.968Z" fill="url(#paint3_linear_31_4931)"/>
<path d="M200.498 215.388L284.038 167.084L200.498 118.791L116.968 167.084L200.498 215.388Z" fill="#BCBEFF"/>
<path d="M200.498 214.259L283.052 166.525L284.038 167.084L200.498 215.388L116.968 167.084L117.943 166.525L200.498 214.259Z" fill="white"/>
<path d="M200.498 204.245L264.752 167.095L200.498 129.946L136.254 167.095L200.498 204.245Z" fill="#0F054C"/>
<path opacity="0.5" d="M200.498 204.245L264.752 167.095L200.498 129.946L136.254 167.095L200.498 204.245Z" fill="url(#paint4_linear_31_4931)"/>
<path opacity="0.5" d="M200.498 120.579L136.254 157.728V167.095L200.498 129.946V120.579Z" fill="url(#paint5_linear_31_4931)"/>
<path opacity="0.5" d="M200.498 129.946L264.752 167.095V157.728L200.498 120.579V129.946Z" fill="url(#paint6_linear_31_4931)"/>
<path opacity="0.5" d="M200.498 194.878L264.752 157.728L200.498 120.579L136.254 157.728L200.498 194.878Z" fill="url(#paint7_linear_31_4931)"/>
<path opacity="0.5" d="M200.498 172.579L226.169 157.728L200.498 142.888L174.827 157.728L200.498 172.579Z" fill="#42E8E0"/>
<path opacity="0.5" d="M200.498 144.248L176.009 158.408L174.827 157.728L200.498 142.888L226.169 157.728L224.997 158.408L200.498 144.248Z" fill="#42E8E0"/>
<path opacity="0.5" d="M200.498 194.878V204.245L136.254 167.095V157.728L200.498 194.878Z" fill="url(#paint8_linear_31_4931)"/>
<path opacity="0.5" d="M264.752 157.728V167.095L200.498 204.245V194.878L264.752 157.728Z" fill="url(#paint9_linear_31_4931)"/>
<path opacity="0.8" d="M200.498 193.858L263.865 157.224L264.752 157.728L200.498 194.878L136.254 157.728L137.13 157.224L200.498 193.858Z" fill="#42E8E0"/>
<g opacity="0.11">
<path d="M324.078 235.724C327.44 233.782 331.58 233.782 334.953 235.724L399.733 273.092C400.751 273.685 400.751 275.154 399.733 275.747L334.405 313.521C331.437 315.232 327.779 315.232 324.811 313.521L259.385 275.78C258.367 275.187 258.367 273.718 259.385 273.125L324.078 235.724Z" fill="url(#paint10_linear_31_4931)"/>
</g>
<g opacity="0.11">
<path d="M324.078 224.788C327.44 222.847 331.58 222.847 334.953 224.788L399.733 262.168C400.751 262.76 400.751 264.23 399.733 264.822L334.405 302.597C331.437 304.308 327.779 304.308 324.811 302.597L259.385 264.855C258.367 264.263 258.367 262.793 259.385 262.201L324.078 224.799V224.788Z" fill="url(#paint11_linear_31_4931)"/>
</g>
<g opacity="0.11">
<path d="M324.078 213.864C327.44 211.922 331.58 211.922 334.953 213.864L399.733 251.233C400.751 251.825 400.751 253.295 399.733 253.887L334.405 291.662C331.437 293.373 327.779 293.373 324.811 291.662L259.385 253.92C258.367 253.328 258.367 251.858 259.385 251.266L324.078 213.864Z" fill="url(#paint12_linear_31_4931)"/>
</g>
<g opacity="0.11">
<path d="M324.078 202.928C327.44 200.987 331.58 200.987 334.953 202.928L399.733 240.297C400.751 240.89 400.751 242.359 399.733 242.952L334.405 280.726C331.437 282.437 327.779 282.437 324.811 280.726L259.385 242.985C258.367 242.392 258.367 240.923 259.385 240.33L324.078 202.928Z" fill="url(#paint13_linear_31_4931)"/>
</g>
<path opacity="0.5" d="M259.385 240.341L324.078 202.939C327.44 200.998 331.58 200.998 334.953 202.939L399.733 240.297C400.247 240.593 400.499 241.109 400.499 241.624V263.605C400.499 264.12 400.247 264.636 399.733 264.932L334.405 302.707C331.437 304.418 327.779 304.418 324.811 302.707L259.385 264.965C258.871 264.669 258.619 264.153 258.619 263.638V241.657C258.619 241.142 258.871 240.626 259.385 240.33V240.341Z" fill="url(#paint14_linear_31_4931)"/>
<g opacity="0.11">
<path d="M324.078 202.928C327.44 200.987 331.58 200.987 334.953 202.928L399.733 240.297C400.751 240.89 400.751 242.359 399.733 242.952L334.405 280.726C331.437 282.437 327.779 282.437 324.811 280.726L259.385 242.985C258.367 242.392 258.367 240.923 259.385 240.33L324.078 202.928Z" fill="url(#paint15_linear_31_4931)"/>
</g>
<g opacity="0.5">
<path d="M327.232 224.36C328.655 223.538 330.419 223.538 331.842 224.36L360.876 241.109C361.336 241.372 361.336 242.03 360.876 242.294L331.722 259.152C330.397 259.92 328.765 259.92 327.44 259.152L298.242 242.316C297.782 242.052 297.782 241.394 298.242 241.131L327.232 224.371V224.36Z" fill="#42E8E0"/>
</g>
<path d="M360.865 242.151L331.831 225.402C330.408 224.58 328.644 224.58 327.221 225.402L298.231 242.162C298.231 242.162 298.188 242.206 298.166 242.228C297.793 241.932 297.804 241.361 298.231 241.109L327.221 224.349C328.644 223.527 330.408 223.527 331.831 224.349L360.865 241.098C361.292 241.339 361.303 241.921 360.93 242.217C360.908 242.195 360.898 242.162 360.865 242.151Z" fill="#42E8E0"/>
<path d="M259.385 241.482L324.811 279.224C327.779 280.935 331.437 280.935 334.405 279.224L399.733 241.449C399.984 241.306 400.171 241.098 400.302 240.879C400.696 241.57 400.499 242.513 399.733 242.963L334.405 280.737C331.437 282.448 327.779 282.448 324.811 280.737L259.385 242.996C258.619 242.546 258.433 241.603 258.816 240.912C258.947 241.142 259.133 241.339 259.385 241.482Z" fill="url(#paint16_linear_31_4931)"/>
<g opacity="0.11">
<path d="M65.9548 235.724C69.317 233.782 73.4568 233.782 76.83 235.724L141.621 273.103C142.639 273.696 142.639 275.165 141.621 275.758L76.2933 313.532C73.3254 315.243 69.6675 315.243 66.6995 313.532L1.27357 275.791C0.255051 275.198 0.255051 273.729 1.27357 273.136L65.9658 235.735L65.9548 235.724Z" fill="url(#paint17_linear_31_4931)"/>
</g>
<g opacity="0.11">
<path d="M65.9548 224.788C69.317 222.847 73.4568 222.847 76.83 224.788L141.621 262.168C142.639 262.76 142.639 264.23 141.621 264.822L76.2933 302.597C73.3254 304.308 69.6675 304.308 66.6995 302.597L1.27357 264.855C0.255051 264.263 0.255051 262.793 1.27357 262.201L65.9658 224.799L65.9548 224.788Z" fill="url(#paint18_linear_31_4931)"/>
</g>
<g opacity="0.11">
<path d="M65.9548 213.864C69.317 211.922 73.4568 211.922 76.83 213.864L141.621 251.244C142.639 251.836 142.639 253.306 141.621 253.898L76.2933 291.673C73.3254 293.384 69.6675 293.384 66.6995 291.673L1.27357 253.931C0.255051 253.339 0.255051 251.869 1.27357 251.277L65.9658 213.875L65.9548 213.864Z" fill="url(#paint19_linear_31_4931)"/>
</g>
<g opacity="0.11">
<path d="M65.9548 202.928C69.317 200.987 73.4568 200.987 76.83 202.928L141.621 240.308C142.639 240.901 142.639 242.37 141.621 242.963L76.2933 280.737C73.3254 282.448 69.6675 282.448 66.6995 280.737L1.27357 242.996C0.255051 242.403 0.255051 240.934 1.27357 240.341L65.9658 202.939L65.9548 202.928Z" fill="url(#paint20_linear_31_4931)"/>
</g>
<path opacity="0.5" d="M1.26263 240.341L65.9549 202.939C69.3171 200.998 73.4568 200.998 76.83 202.939L141.621 240.319C142.136 240.615 142.387 241.131 142.387 241.646V263.627C142.387 264.142 142.136 264.658 141.621 264.954L76.2934 302.729C73.3254 304.44 69.6675 304.44 66.6996 302.729L1.27359 264.987C0.75885 264.691 0.506943 264.175 0.506943 263.66V241.679C0.506943 241.164 0.75885 240.648 1.27359 240.352L1.26263 240.341Z" fill="url(#paint21_linear_31_4931)"/>
<g opacity="0.11">
<path d="M65.9548 202.928C69.317 200.987 73.4568 200.987 76.83 202.928L141.621 240.308C142.639 240.901 142.639 242.37 141.621 242.963L76.2933 280.737C73.3254 282.448 69.6675 282.448 66.6995 280.737L1.27357 242.996C0.255051 242.403 0.255051 240.934 1.27357 240.341L65.9658 202.939L65.9548 202.928Z" fill="url(#paint22_linear_31_4931)"/>
</g>
<g opacity="0.5">
<path d="M69.12 224.36C70.5437 223.538 72.307 223.538 73.7307 224.36L102.764 241.109C103.224 241.372 103.224 242.03 102.764 242.294L73.6102 259.152C72.285 259.92 70.6532 259.92 69.328 259.152L40.1306 242.316C39.6706 242.052 39.6706 241.394 40.1306 241.131L69.12 224.371V224.36Z" fill="#42E8E0"/>
</g>
<path d="M102.753 242.151L73.7196 225.402C72.2959 224.58 70.5327 224.58 69.1089 225.402L40.1195 242.162C40.1195 242.162 40.0757 242.206 40.0538 242.228C39.6815 241.932 39.6924 241.361 40.1195 241.109L69.1089 224.349C70.5327 223.527 72.2959 223.527 73.7196 224.349L102.753 241.098C103.18 241.339 103.191 241.921 102.819 242.217C102.797 242.195 102.786 242.162 102.753 242.151Z" fill="#42E8E0"/>
<path d="M1.26266 241.482L66.6887 279.224C69.6566 280.935 73.3145 280.935 76.2824 279.224L141.61 241.449C141.862 241.306 142.048 241.098 142.179 240.879C142.574 241.57 142.376 242.513 141.61 242.963L76.2824 280.737C73.3145 282.448 69.6566 282.448 66.6887 280.737L1.26266 242.996C0.496048 242.546 0.309875 241.603 0.693192 240.912C0.824615 241.142 1.01077 241.339 1.26266 241.482Z" fill="url(#paint23_linear_31_4931)"/>
<path opacity="0.5" d="M18.0737 150.051V111.19C18.9717 97.9403 24.2066 85.3159 32.99 73.7773V112.638C24.2066 124.176 18.9717 136.801 18.0737 150.051ZM37.4802 107.176V68.3151C40.5796 64.8162 44.0075 61.438 47.753 58.1804V97.0409C44.0075 100.299 40.5796 103.677 37.4802 107.176ZM54.116 91.853V53.0034C58.1901 49.8884 62.5598 46.9051 67.2143 44.0752V82.9358C62.5708 85.7656 58.1901 88.7489 54.116 91.8639V91.853ZM75.9977 89.407V27.59C40.251 46.587 17.9313 73.7553 17.9313 103.808V165.647C17.9313 135.594 40.251 108.426 75.9977 89.429V89.407Z" fill="#42E8E0"/>
<path opacity="0.5" d="M141.38 59.7379V48.5722C144.107 48.0457 146.867 47.5631 149.649 47.1134V58.2791C146.867 58.7288 144.107 59.2114 141.38 59.7379ZM156.252 46.1263V36.2439C159.078 35.849 161.936 35.4981 164.806 35.1909V45.0733C161.925 45.3914 159.078 45.7424 156.252 46.1263ZM127.055 51.7201V38.2511C129.672 37.604 132.323 36.9897 135.006 36.4084V49.8774C132.323 50.4588 129.672 51.073 127.055 51.7201ZM171.64 44.4043V24.5079C174.553 24.2556 177.488 24.0472 180.445 23.8717V43.7572C177.488 43.9326 174.553 44.141 171.64 44.3933V44.4043ZM203.586 43.2855V23.3891C206.576 23.433 209.555 23.5207 212.512 23.6523V43.5378C209.555 43.4062 206.576 43.3184 203.586 43.2745V43.2855ZM219.455 43.9217V18.9031C222.379 19.1005 225.282 19.3308 228.173 19.6051V44.6236C225.293 44.3494 222.379 44.1191 219.455 43.9217ZM187.454 43.4391V14.8229C190.126 14.7242 192.82 14.6693 195.526 14.6364C195.843 14.6364 196.161 14.6364 196.489 14.6364V43.2526C196.172 43.2526 195.854 43.2526 195.526 43.2526C192.82 43.2745 190.126 43.3404 187.454 43.4391ZM234.93 45.3256V9.53619C237.778 9.86524 240.603 10.2382 243.407 10.655V46.4444C240.603 46.0385 237.778 45.6656 234.93 45.3256ZM261.62 6.46508C241.063 2.08875 218.776 -0.214585 195.537 0.0157481C164.51 0.322859 135.444 5.11599 110.167 13.2764V75.1154C135.444 66.944 164.51 62.1619 195.537 61.8548C218.776 61.6244 241.074 63.9168 261.62 68.3041V6.46508Z" fill="#42E8E0"/>
<path opacity="0.5" d="M366.658 90.3393V77.8904C370.349 83.21 373.306 88.7599 375.431 94.4744V131.35C373.295 125.624 370.349 120.085 366.658 114.766V102.317C365.585 100.77 364.457 99.2456 363.263 97.7429V104.455C360.996 101.604 358.521 98.8178 355.838 96.1086V89.3961C344.196 77.66 328.677 67.3608 310.311 59.0688V47.0915C313.575 48.5722 316.751 50.1078 319.839 51.7091C321.383 52.5098 322.895 53.3215 324.395 54.1551C336.19 60.7141 346.43 68.1835 354.786 76.3767C355.137 76.7277 355.487 77.0677 355.838 77.4187V70.7062C358.521 73.4153 361.007 76.1903 363.263 79.053V85.7656C364.457 87.2682 365.585 88.7928 366.658 90.3393ZM377.84 89.9445C370.82 59.7818 341.305 33.787 299.436 17.6198V79.4588C341.305 95.637 370.82 121.621 377.84 151.794V89.9555V89.9445Z" fill="#42E8E0"/>
<path opacity="0.75" d="M355.838 77.4297C355.487 77.0787 355.137 76.7277 354.786 76.3877V88.3651C348.544 82.2448 341.25 76.5303 333.047 71.2875C330.265 69.5106 327.385 67.7996 324.395 66.1434V54.166C322.906 53.3324 321.383 52.5208 319.839 51.7201V63.6974C316.762 62.0961 313.586 60.5605 310.311 59.0798C328.677 67.3718 344.185 77.671 355.838 89.407V77.4297ZM366.658 90.3393C365.585 88.7928 364.457 87.2682 363.263 85.7656V97.7429C364.457 99.2456 365.585 100.77 366.658 102.317V90.3393Z" fill="#42E8E0"/>
<path opacity="0.88" d="M319.839 51.7201C316.762 50.1188 313.586 48.5832 310.311 47.1025V59.0798C313.575 60.5605 316.751 62.0961 319.839 63.6974V51.7201Z" fill="#42E8E0"/>
<path opacity="0.88" d="M354.786 76.3877C348.544 70.2674 341.25 64.553 333.047 59.3101V71.2875C341.25 76.5193 348.555 82.2448 354.786 88.365V76.3877Z" fill="#42E8E0"/>
<path opacity="0.97" d="M333.047 59.3101C330.265 57.5333 327.385 55.8222 324.395 54.166V66.1434C327.374 67.7996 330.265 69.5216 333.047 71.2875V59.3101Z" fill="#42E8E0"/>
<path opacity="0.75" d="M375.431 94.4853C373.295 88.7599 370.349 83.2209 366.658 77.9013V90.3503C370.349 95.6699 373.306 101.22 375.431 106.934V118.912C373.295 113.186 370.349 107.647 366.658 102.328V114.777C370.349 120.096 373.306 125.646 375.431 131.361V94.4853Z" fill="#42E8E0"/>
<path opacity="0.88" d="M375.431 106.934C373.295 101.209 370.349 95.6699 366.658 90.3503V102.328C370.349 107.647 373.306 113.197 375.431 118.912V106.934Z" fill="#42E8E0"/>
<path opacity="0.75" d="M363.263 97.7429C360.996 94.8912 358.521 92.1052 355.838 89.3961V96.1086C358.521 98.8178 361.007 101.593 363.263 104.455V97.7429ZM363.263 79.053C360.996 76.2013 358.521 73.4153 355.838 70.7062V77.4187C358.521 80.1279 361.007 82.9029 363.263 85.7656V79.053Z" fill="#42E8E0"/>
<path opacity="0.88" d="M363.263 85.7656C360.996 82.9138 358.521 80.1279 355.838 77.4187V89.3961C358.521 92.1052 361.007 94.8802 363.263 97.7429V85.7656Z" fill="#42E8E0"/>
<path opacity="0.75" d="M32.99 73.7773C24.2066 85.3159 18.9717 97.9404 18.0736 111.19V150.051C18.9717 136.801 24.2066 124.176 32.99 112.638V73.7773Z" fill="#42E8E0"/>
<path d="M47.753 58.1804C44.0075 61.438 40.5796 64.8162 37.4802 68.3151V107.176C40.5796 103.677 44.0075 100.299 47.753 97.041V58.1804Z" fill="#42E8E0"/>
<path opacity="0.75" d="M67.2034 44.0752C62.5598 46.905 58.1791 49.8884 54.105 53.0034V91.8639C58.1791 88.7489 62.5489 85.7656 67.2034 82.9358V44.0752Z" fill="#42E8E0"/>
<path opacity="0.75" d="M135.006 36.3975C132.323 36.9788 129.672 37.593 127.055 38.2401V51.7091C129.672 51.062 132.323 50.4478 135.006 49.8665V36.3975Z" fill="#42E8E0"/>
<path opacity="0.75" d="M149.648 47.1134C146.867 47.5631 144.107 48.0457 141.38 48.5722V59.7379C144.107 59.2114 146.867 58.7288 149.648 58.2791V47.1134Z" fill="#42E8E0"/>
<path opacity="0.75" d="M164.817 35.18C161.936 35.4981 159.089 35.849 156.263 36.2329V46.1153C159.089 45.7205 161.947 45.3695 164.817 45.0624V35.18Z" fill="#42E8E0"/>
<path opacity="0.75" d="M180.445 23.8717C177.488 24.0472 174.553 24.2556 171.64 24.5079V44.3933C174.553 44.141 177.488 43.9326 180.445 43.7572V23.8717Z" fill="#42E8E0"/>
<path opacity="0.75" d="M196.489 14.6364C196.172 14.6364 195.854 14.6364 195.525 14.6364C192.82 14.6584 190.126 14.7242 187.454 14.8229V43.4391C190.126 43.3404 192.82 43.2855 195.525 43.2526C195.843 43.2526 196.161 43.2526 196.489 43.2526V14.6364Z" fill="#42E8E0"/>
<path d="M212.523 23.6523C209.566 23.5207 206.587 23.433 203.597 23.3891V43.2745C206.587 43.3184 209.566 43.4062 212.523 43.5378V23.6523Z" fill="#42E8E0"/>
<path opacity="0.75" d="M228.184 19.5941C225.303 19.3199 222.39 19.0895 219.466 18.8921V43.9107C222.39 44.1081 225.292 44.3385 228.184 44.6127V19.5941Z" fill="#42E8E0"/>
<path d="M243.418 10.644C240.614 10.2382 237.789 9.86524 234.941 9.52522V45.3256C237.789 45.6547 240.614 46.0276 243.418 46.4444V10.644Z" fill="#42E8E0"/>
<g opacity="0.11">
<path d="M205.93 316.088C202.765 314.256 198.877 314.256 195.712 316.088L134.798 351.23C133.834 351.79 133.834 353.172 134.798 353.72L196.215 389.235C199.008 390.848 202.447 390.848 205.24 389.235L266.756 353.753C267.72 353.194 267.72 351.812 266.756 351.263L205.93 316.099V316.088Z" fill="url(#paint24_linear_31_4931)"/>
</g>
<g opacity="0.11">
<path d="M205.93 305.811C202.765 303.979 198.877 303.979 195.712 305.811L134.798 340.953C133.834 341.512 133.834 342.894 134.798 343.443L196.215 378.958C199.008 380.57 202.447 380.57 205.24 378.958L266.756 343.476C267.72 342.916 267.72 341.534 266.756 340.986L205.93 305.822V305.811Z" fill="url(#paint25_linear_31_4931)"/>
</g>
<g opacity="0.11">
<path d="M205.93 295.533C202.765 293.702 198.877 293.702 195.712 295.533L134.798 330.676C133.834 331.235 133.834 332.617 134.798 333.166L196.215 368.681C199.008 370.293 202.447 370.293 205.24 368.681L266.756 333.198C267.72 332.639 267.72 331.257 266.756 330.709L205.93 295.544V295.533Z" fill="url(#paint26_linear_31_4931)"/>
</g>
<g opacity="0.11">
<path d="M205.93 285.256C202.765 283.425 198.877 283.425 195.712 285.256L134.798 320.398C133.834 320.958 133.834 322.34 134.798 322.888L196.215 358.404C199.008 360.016 202.447 360.016 205.24 358.404L266.756 322.921C267.72 322.362 267.72 320.98 266.756 320.431L205.93 285.267V285.256Z" fill="url(#paint27_linear_31_4931)"/>
</g>
<path opacity="0.11" d="M266.756 320.42L205.93 285.256C202.765 283.425 198.877 283.425 195.712 285.256L134.798 320.398C134.316 320.673 134.075 321.166 134.075 321.649V352.481C134.075 352.963 134.316 353.446 134.798 353.731L196.215 389.246C199.008 390.859 202.447 390.859 205.24 389.246L266.756 353.764C267.238 353.49 267.479 352.996 267.479 352.514V321.682C267.479 321.199 267.238 320.717 266.756 320.431V320.42Z" fill="url(#paint28_linear_31_4931)"/>
<g opacity="0.11">
<path d="M207.025 260.051C203.192 257.836 198.472 257.836 194.627 260.051L120.769 302.663C119.608 303.332 119.608 305.021 120.769 305.69L195.241 348.751C198.625 350.704 202.797 350.704 206.182 348.751L280.774 305.723C281.935 305.054 281.935 303.365 280.774 302.696L207.025 260.051Z" fill="url(#paint29_linear_31_4931)"/>
</g>
<g opacity="0.11">
<path d="M207.025 247.591C203.192 245.376 198.472 245.376 194.627 247.591L120.769 290.203C119.608 290.872 119.608 292.561 120.769 293.23L195.241 336.292C198.625 338.244 202.797 338.244 206.182 336.292L280.774 293.263C281.935 292.594 281.935 290.905 280.774 290.236L207.025 247.591Z" fill="url(#paint30_linear_31_4931)"/>
</g>
<g opacity="0.11">
<path d="M207.025 235.131C203.192 232.916 198.472 232.916 194.627 235.131L120.769 277.743C119.608 278.412 119.608 280.101 120.769 280.77L195.241 323.832C198.625 325.784 202.797 325.784 206.182 323.832L280.774 280.803C281.935 280.134 281.935 278.445 280.774 277.776L207.025 235.131Z" fill="url(#paint31_linear_31_4931)"/>
</g>
<g opacity="0.11">
<path d="M207.025 222.671C203.192 220.456 198.472 220.456 194.627 222.671L120.769 265.283C119.608 265.952 119.608 267.641 120.769 268.31L195.241 311.372C198.625 313.324 202.797 313.324 206.182 311.372L280.774 268.343C281.935 267.674 281.935 265.985 280.774 265.316L207.025 222.671Z" fill="url(#paint32_linear_31_4931)"/>
</g>
<path opacity="0.5" d="M280.774 265.316L207.025 222.671C203.192 220.456 198.472 220.456 194.627 222.671L120.769 265.283C120.188 265.623 119.892 266.204 119.892 266.797V304.176C119.892 304.769 120.188 305.35 120.769 305.69L195.241 348.751C198.625 350.704 202.797 350.704 206.182 348.751L280.774 305.723C281.355 305.383 281.65 304.802 281.65 304.209V266.83C281.65 266.237 281.355 265.656 280.774 265.316Z" fill="url(#paint33_linear_31_4931)"/>
<g opacity="0.11">
<path d="M207.025 222.671C203.192 220.456 198.472 220.456 194.627 222.671L120.769 265.283C119.608 265.952 119.608 267.641 120.769 268.31L195.241 311.372C198.625 313.324 202.797 313.324 206.182 311.372L280.774 268.343C281.935 267.674 281.935 265.985 280.774 265.316L207.025 222.671Z" fill="url(#paint34_linear_31_4931)"/>
</g>
<path d="M280.774 266.621L206.182 309.65C202.798 311.602 198.625 311.602 195.241 309.65L120.769 266.588C120.484 266.424 120.265 266.193 120.122 265.941C119.673 266.731 119.892 267.806 120.769 268.31L195.241 311.372C198.625 313.324 202.798 313.324 206.182 311.372L280.774 268.343C281.65 267.839 281.869 266.764 281.42 265.974C281.278 266.237 281.059 266.457 280.774 266.621Z" fill="url(#paint35_linear_31_4931)"/>
<path opacity="0.2" d="M200.771 290.433C178.313 290.433 160.107 279.905 160.107 266.917C160.107 253.93 178.313 243.401 200.771 243.401C223.23 243.401 241.435 253.93 241.435 266.917C241.435 279.905 223.23 290.433 200.771 290.433Z" fill="#180D5B"/>
<path d="M185.297 246.977C185.297 246.977 184.311 248.008 183.281 249.226C182.252 250.443 179.372 252.132 178.156 252.889C176.94 253.646 171.399 257.858 170.238 262.004C169.077 266.15 173.042 266.698 177.105 265.985C181.168 265.272 184.957 261.521 186.052 260.161C187.158 258.812 190.992 255.741 195.975 253.152C200.958 250.575 197.946 247.098 197.946 247.098L185.297 246.977Z" fill="#160A5B"/>
<path d="M222.259 259.305C222.259 259.305 223.08 261.17 223.31 263.572C223.54 265.974 223.88 271.173 224 272.698C224.121 274.222 224.175 277.94 221.503 281.505C218.831 285.07 217.451 286.474 213.892 285.081C210.332 283.688 210.42 277.699 211.044 274.628C211.668 271.557 212.26 264.68 212.194 263.956C212.128 263.232 212.402 262.771 212.402 262.771L222.259 259.305Z" fill="#160A5B"/>
<path d="M173.031 176.495C173.031 176.495 173.775 203.894 180.149 218.438C180.149 218.438 184.716 231.249 185.318 246.483C185.318 246.483 184.267 249.105 185.757 251.244C187.257 253.372 196.61 255.324 198.154 248.326C199.698 241.317 199.107 228.21 197.409 222.748C195.712 217.286 198.012 202.216 198.012 202.216C198.012 202.216 200.574 203.85 203.926 214.675C207.277 225.501 209.741 229.625 210.902 232.62C212.052 235.614 213.114 253.953 212.38 262.914C212.38 262.914 219.959 263.989 222.149 260.358C224.34 256.728 225.073 237.961 224.515 231.972C223.956 225.984 221.459 206.811 221.799 200.888C222.138 194.955 223.376 190.14 222.018 184.217C220.66 178.294 180.664 165.132 180.664 165.132L172.998 176.517L173.031 176.495Z" fill="#24126A"/>
<path d="M221.821 200.866C222.16 194.933 223.398 190.118 222.04 184.195C221.525 181.968 215.556 178.722 208.306 175.53C196.062 174.411 180.543 173.117 179.47 173.27C178.506 173.413 175.977 174.378 173.874 175.223L173.02 176.495C173.02 176.495 173.063 178.162 173.228 180.882C176.086 181.738 181.573 180.849 181.573 180.849C182.351 182.769 187.115 189.602 193.05 192.553C198.986 195.503 216.345 194.494 217.342 195.613C218.338 196.731 218.535 211.736 218.426 213.644C218.316 215.553 220.058 227.563 221.678 238.17C223.266 248.611 220.846 261.313 220.769 261.718C221.328 261.356 221.821 260.918 222.16 260.347C224.351 256.717 225.084 237.95 224.526 231.961C223.967 225.973 221.47 206.8 221.81 200.877L221.821 200.866Z" fill="#160A5B"/>
<path d="M186.414 86.8843C186.414 86.8843 177.543 88.9135 174.553 89.6154C174.06 89.7361 173.655 90.0761 173.469 90.5587C172.603 92.7414 170.446 99.5307 172.078 109.446C174.082 121.632 173.447 129.825 173.447 129.825L169.34 151.213C169.34 151.213 164.181 171.592 164.63 172.141C165.08 172.7 176.513 181.409 180.083 180.191C183.654 178.963 182.482 176.934 182.482 176.934C182.482 176.934 185.373 191.697 198.198 191.554C211.011 191.412 221.481 191.456 223.661 186.268C225.84 181.08 223.069 159.275 220.802 150.632C218.546 142 213.169 124.78 213.169 124.78L231.94 103.973L215.896 91.6994C215.896 91.6994 212.063 84.57 210.486 83.6597C208.909 82.7493 208.087 83.5171 208.087 83.5171L186.414 86.8624V86.8843Z" fill="#453C9E"/>
<path d="M180.302 175.486C180.313 176.232 179.886 177.329 177.575 178.118C175.089 178.974 168.989 175.267 164.992 172.47C166.985 174.126 176.809 181.31 180.083 180.191C180.795 179.95 181.31 179.676 181.693 179.391C180.96 177.745 180.522 176.33 180.302 175.497V175.486Z" fill="url(#paint36_linear_31_4931)"/>
<path d="M223.562 184.546C221.262 190.019 210.223 189.975 196.697 190.129C193.258 190.161 190.499 189.185 188.286 187.705C190.63 189.942 193.839 191.62 198.198 191.565C211.011 191.423 221.481 191.467 223.661 186.279C224.372 184.579 224.559 181.08 224.394 176.846C224.427 180.279 224.186 183.065 223.562 184.546Z" fill="url(#paint37_linear_31_4931)"/>
<path d="M210.146 83.4951C210.146 83.4951 213.421 87.4656 208.712 92.8291C205.809 96.1306 200.815 103.238 196.566 110.631C193.905 115.248 191.451 117.705 190.061 121.676C190.061 121.676 189.863 116.97 189.677 109.687C189.502 102.821 189.403 95.6918 189.71 93.893C190.345 90.1967 206.532 81.6964 210.146 83.4951Z" fill="#F0F6FF"/>
<path d="M197.891 95.4396C197.891 95.4396 196.215 96.4816 195.635 96.3938C195.055 96.3061 193.193 94.4963 193.193 94.4963C193.193 94.4963 188.538 94.4086 188.034 92.4123C187.531 90.4161 187.191 88.4089 186.72 87.3669C186.249 86.325 184.245 81.3454 184.223 79.3272C184.212 77.309 184.289 73.7005 183.413 71.781C182.537 69.8726 181.365 50.7439 199.808 51.2923C218.25 51.8408 212.523 71.0023 212.523 71.0023C212.523 71.0023 213.87 71.5727 213.059 74.0405C212.249 76.5084 212.063 76.7606 211.647 77.9891C211.23 79.2175 211.022 79.9963 209.85 80.9944L209.544 83.2648C209.544 83.2648 210.42 86.7418 208.131 90.109C205.842 93.4872 197.902 95.4176 197.902 95.4176L197.891 95.4396Z" fill="#FCD1C5"/>
<path d="M174.049 89.8348C174.049 89.8348 172.089 90.1309 165.704 106.199C162.144 115.171 156.647 124.451 155.486 131.119C154.325 137.788 154.971 144.906 156.285 145.411C157.556 145.894 180.467 154.482 187.64 157.191C188.034 157.344 188.473 157.092 188.538 156.675L190.521 145.586L176.294 140.08C176.294 140.08 173.589 136.768 171.037 135.518C171.037 135.518 173.885 130.253 173.71 128.816C173.523 127.379 173.961 112.517 172.297 106.463C170.632 100.408 174.038 89.8238 174.038 89.8238L174.049 89.8348Z" fill="#24126A"/>
<path d="M182.383 132.304C182.383 132.304 180.423 130.988 179.941 130.801C179.459 130.615 176.842 129.715 176.338 129.496C175.966 129.331 174.443 129.452 173.677 129.529C173.403 129.562 173.162 129.715 173.03 129.968C172.428 131.097 170.742 134.366 170.928 135.616C170.928 135.616 175.659 138.611 176.196 139.949L176.951 140.113C176.951 140.113 180.127 133.302 182.394 132.315L182.383 132.304Z" fill="#FCD1C5"/>
<path d="M220.802 150.643C220.255 148.57 219.532 145.992 218.743 143.283L189.94 155.644C189.94 155.644 198.559 166.262 213.673 165.582C217.801 165.395 220.813 163.903 223.036 162.62C222.368 157.904 221.558 153.538 220.802 150.643Z" fill="#24126A"/>
<path d="M231.94 103.984C231.94 103.984 224.34 105.026 218.207 114.777C212.074 124.516 207.594 135.792 207.594 135.792L207.386 137.064C206.839 140.377 203.312 142.274 200.246 140.903C193.762 138.007 184.168 133.62 182.383 132.304C182.383 132.304 176.645 135.485 175.079 142.987C173.83 148.976 174.148 148.987 174.148 148.987C174.148 148.987 199.72 160.942 209.599 160.821C219.477 160.701 232.006 128.18 233.386 121.456C234.766 114.733 236.288 105.87 231.94 103.973V103.984Z" fill="#24126A"/>
<path d="M231.94 103.984C231.94 103.984 224.34 105.026 218.207 114.777C212.074 124.516 207.594 135.792 207.594 135.792L207.386 137.064C206.839 140.377 203.312 142.274 200.246 140.903C193.762 138.007 184.168 133.62 182.383 132.304C182.383 132.304 176.645 135.485 175.079 142.987C173.83 148.976 174.148 148.987 174.148 148.987C174.148 148.987 199.72 160.942 209.599 160.821C219.477 160.701 232.006 128.18 233.386 121.456C234.766 114.733 236.288 105.87 231.94 103.973V103.984Z" fill="#4846A5"/>
<path d="M203.925 142.417C203.925 142.417 207.156 145.433 208.558 143.788C209.96 142.131 209.544 141.945 209.544 141.945C209.544 141.945 212.446 141.923 212.796 140.091C213.147 138.271 214.582 139.236 214.658 137.207C214.735 135.178 212.304 135.594 212.304 135.594L203.915 142.417H203.925Z" fill="#453C9E"/>
<path d="M200.027 140.793C200.027 140.793 200.914 139.971 202.064 138.995C203.203 138.029 205.054 134.015 205.371 133.664C205.689 133.313 209.544 130.341 211.406 130.297C213.267 130.242 211.887 132.326 211.46 132.622C211.033 132.918 209.215 133.818 209.215 133.818C209.215 133.818 207.342 135.386 207.134 135.616C206.926 135.847 212.326 135.243 213.191 135.77C214.045 136.296 213.848 137.678 213.245 138.062C212.643 138.435 212.172 138.424 212.172 138.424C212.172 138.424 212.786 140.058 211.154 140.815C209.533 141.572 209.16 141.155 209.16 141.155C209.16 141.155 209.018 143.974 206.346 143.415L200.038 140.804L200.027 140.793Z" fill="#FCD1C5"/>
<path d="M182.997 62.0303C182.997 62.0303 180.587 69.708 186.928 67.5254C193.259 65.3427 198.997 61.6903 200.98 63.0832C202.491 64.1471 202.425 67.3937 202.305 68.8745C202.261 69.379 202.392 69.8835 202.688 70.3003L204.561 73.0314C204.769 73.3385 204.9 73.7005 204.922 74.0734L205.054 75.9709C205.086 76.4535 205.47 76.8264 205.952 76.8594L206.379 76.8813C206.861 76.9142 207.288 76.5742 207.375 76.0916L207.868 73.2947C207.868 73.2947 209.358 69.5326 212.512 71.0133C212.512 71.0133 214.615 68.1725 213.914 62.118C213.213 56.0526 210.497 49.7458 198.614 48.7367C186.731 47.7277 182.986 62.0193 182.986 62.0193L182.997 62.0303Z" fill="#AA8383"/>
<path d="M201.155 102.196L199.381 100.814C199.381 100.814 197.738 102.185 197.092 103.633C196.445 105.081 197.092 109.698 197.092 109.698L196.555 110.631L195.887 109.413L195.328 103.962C195.328 103.962 195.931 99.9366 195.996 99.8269C196.051 99.7282 199.424 100.189 199.424 100.189C199.424 100.189 200.596 101.077 201.166 102.207L201.155 102.196Z" fill="#C4CCD6"/>
<path d="M192.612 96.7667C192.612 96.7667 190.718 96.8984 189.852 97.6003C189.852 97.6003 191.846 97.699 192.163 97.7319C192.481 97.7648 192.612 96.7558 192.612 96.7558V96.7667Z" fill="#C4CCD6"/>
<path d="M196.226 97.1945L199.413 100.178C199.413 100.178 196.61 101.472 195.832 103.973C195.832 103.973 192.36 104.62 192.043 103.359C191.725 102.097 192.043 98.9275 191.638 97.5235C191.221 96.1196 196.215 97.1835 196.215 97.1835L196.226 97.1945Z" fill="#24126A"/>
<path d="M192.185 103.293C192.185 103.293 191.594 105.903 190.948 106.989C190.301 108.064 189.633 109.282 189.633 109.282L189.71 124.604C189.71 124.604 195.339 112.989 196.555 110.642C196.555 110.642 196.369 105.048 195.832 103.984C195.295 102.931 192.174 103.304 192.174 103.304L192.185 103.293Z" fill="#24126A"/>
<path d="M207.288 80.6544C203.597 91.3374 193.193 94.5073 193.193 94.5073C193.193 94.5073 195.055 96.317 195.635 96.4048C196.215 96.4925 197.891 95.4505 197.891 95.4505C197.891 95.4505 205.831 93.5201 208.12 90.1419C210.409 86.7637 209.533 83.2977 209.533 83.2977L209.839 81.0273C208.186 81.5647 207.288 80.6653 207.288 80.6653V80.6544Z" fill="#E2B1A6"/>
<path d="M215.743 93.1582C215.743 93.1582 214.286 98.2036 214.1 98.39C213.914 98.5765 210.431 98.1816 210.431 98.1816L212.118 101.384C212.118 101.384 194.617 120.184 190.981 130.297C190.981 130.297 199.26 117.475 213.837 102.174L211.778 99.0481L215.359 99.7501L215.743 93.1691V93.1582Z" fill="#24126A"/>
<path d="M186.994 88.7051L186.063 89.769L187.158 90.789L183.917 93.7176C183.917 93.7176 182.931 114.283 186.885 127.906C186.885 127.906 181.518 115.413 182.734 93.1582L186.238 90.7781L185.088 89.6483L186.994 88.7051Z" fill="#24126A"/>
<path d="M198.022 202.194C198.022 202.194 198.066 202.216 198.143 202.292L193.609 197.455C195.701 200.417 193.291 213.952 193.039 217.045C192.788 220.149 195.46 226.543 196.456 234.045C197.453 241.537 195.405 252.22 195.405 252.253C196.697 251.496 197.738 250.246 198.165 248.304C199.709 241.295 199.118 228.188 197.42 222.726C195.723 217.264 198.022 202.194 198.022 202.194Z" fill="#160A5B"/>
<path d="M209.599 160.832C219.477 160.712 232.006 128.191 233.386 121.467C233.616 120.348 233.846 119.164 234.054 117.968C234.021 118.067 231.458 125.087 228.994 131.317C226.508 137.591 213.311 156.588 206.565 157.827C200.487 158.946 178.605 148.712 174.367 146.694C173.983 148.976 174.148 148.998 174.148 148.998C174.148 148.998 199.72 160.953 209.599 160.832Z" fill="url(#paint38_linear_31_4931)"/>
<path d="M206.39 76.8813C206.872 76.9142 207.299 76.5742 207.386 76.0916L207.879 73.2947C207.879 73.2947 209.369 69.5325 212.523 71.0133C212.523 71.0133 214.505 68.3151 213.968 62.5896C210.464 67.8544 202.688 70.2894 202.688 70.2894L204.561 73.0205C204.769 73.3276 204.9 73.6895 204.922 74.0624L205.054 75.96C205.086 76.4426 205.47 76.8155 205.952 76.8484L206.379 76.8703L206.39 76.8813Z" fill="#936D6D"/>
<path opacity="0.5" d="M322.051 232.389V221.936C319.96 223.055 317.824 224.152 315.645 225.216V235.669C317.824 234.605 319.96 233.508 322.051 232.389ZM342.597 219.337V200.088C340.856 201.393 339.071 202.687 337.231 203.949V223.198C339.071 221.936 340.856 220.653 342.597 219.337ZM332.806 226.115V203.411C330.89 204.629 328.918 205.824 326.903 206.987V229.691C328.918 228.528 330.89 227.333 332.806 226.115ZM359.08 204.431V179.237C357.743 180.707 356.353 182.155 354.907 183.58V208.775C356.353 207.349 357.754 205.901 359.08 204.431ZM351.38 212.098V184.798C349.836 186.191 348.237 187.562 346.594 188.911V216.211C348.248 214.862 349.847 213.491 351.38 212.098ZM371.017 187.946V158.353C370.13 159.955 369.177 161.545 368.159 163.114V192.706C369.177 191.138 370.13 189.547 371.017 187.946ZM365.651 196.359V157.86C364.533 159.395 363.351 160.92 362.113 162.423V200.921C363.351 199.419 364.533 197.894 365.651 196.359ZM375.113 179.215V135.737C374.467 137.393 373.755 139.038 372.977 140.662V184.14C373.755 182.517 374.478 180.871 375.113 179.215ZM302.47 188.867C343.78 172.206 372.309 145.872 378.289 115.709V177.548C372.309 207.711 343.769 234.034 302.47 250.706V188.867Z" fill="#42E8E0"/>
<path opacity="0.5" d="M181.343 257.55V243.599C174.235 243.215 167.248 242.59 160.403 241.734V255.686C167.248 256.53 174.235 257.156 181.343 257.55ZM214.746 257.616V232.192C210.486 232.411 206.182 232.543 201.845 232.587C198.877 232.62 195.931 232.609 192.996 232.554V257.978C195.931 258.033 198.877 258.044 201.845 258.011C206.182 257.967 210.486 257.836 214.746 257.616ZM246.944 254.282V215.421C240.209 216.485 233.32 217.341 226.289 217.955V256.816C233.32 256.201 240.209 255.346 246.944 254.282ZM149.408 254.117V213.074C142.727 211.988 136.2 210.683 129.848 209.18V250.224C136.2 251.726 142.727 253.031 149.408 254.117ZM113.376 195.393C139.693 203.499 169.876 207.974 201.856 207.656C224.143 207.436 245.422 204.903 265.004 200.461V262.3C245.422 266.742 224.143 269.265 201.856 269.495C169.876 269.813 139.693 265.349 113.376 257.232V195.393Z" fill="#42E8E0"/>
<path opacity="0.5" d="M69.0104 213.085V201.108C40.1962 184.074 21.4467 161.348 18.3802 136.077V148.054C21.4467 173.325 40.2072 196.04 69.0104 213.085ZM17.9641 167.49V105.651C18.884 135.891 42.2223 162.894 78.7246 181.507V243.347C42.2223 224.733 18.884 197.73 17.9641 167.49Z" fill="#42E8E0"/>
<path opacity="0.75" d="M18.3802 136.077C21.4467 161.348 40.2072 184.063 69.0104 201.108V213.085C40.1962 196.051 21.4467 173.325 18.3802 148.054V136.077Z" fill="#42E8E0"/>
<path d="M226.278 217.955C233.309 217.341 240.198 216.485 246.933 215.421V254.282C240.198 255.346 233.309 256.201 226.278 256.816V217.955Z" fill="#42E8E0"/>
<path d="M160.403 241.745C167.248 242.59 174.235 243.215 181.343 243.61V257.561C174.235 257.177 167.248 256.552 160.403 255.697V241.745Z" fill="#42E8E0"/>
<path d="M129.837 209.18C136.189 210.683 142.716 211.988 149.396 213.074V254.117C142.716 253.031 136.189 251.726 129.837 250.224V209.18Z" fill="#42E8E0"/>
<path opacity="0.75" d="M192.996 232.554C195.931 232.609 198.877 232.62 201.845 232.587C206.182 232.543 210.486 232.411 214.746 232.192V257.616C210.486 257.836 206.182 257.967 201.845 258.011C198.877 258.044 195.931 258.033 192.996 257.978V232.554Z" fill="#42E8E0"/>
<path d="M372.966 140.673C373.744 139.049 374.467 137.404 375.102 135.748V179.226C374.456 180.882 373.744 182.528 372.966 184.151V140.673Z" fill="#42E8E0"/>
<path d="M368.148 163.114C369.166 161.545 370.119 159.955 371.006 158.353V187.946C370.119 189.547 369.166 191.138 368.148 192.706V163.114Z" fill="#42E8E0"/>
<path opacity="0.75" d="M362.102 162.434C363.34 160.931 364.523 159.406 365.64 157.871V196.369C364.523 197.905 363.34 199.43 362.102 200.932V162.434Z" fill="#42E8E0"/>
<path d="M354.896 183.58C356.342 182.155 357.743 180.707 359.069 179.237V204.431C357.732 205.901 356.342 207.349 354.896 208.775V183.58Z" fill="#42E8E0"/>
<path opacity="0.75" d="M346.583 188.911C348.237 187.562 349.836 186.191 351.369 184.798V212.098C349.825 213.491 348.226 214.862 346.583 216.211V188.911Z" fill="#42E8E0"/>
<path opacity="0.75" d="M337.231 203.938C339.071 202.676 340.856 201.393 342.597 200.077V219.326C340.856 220.631 339.071 221.926 337.231 223.187V203.938Z" fill="#42E8E0"/>
<path opacity="0.75" d="M326.892 206.987C328.907 205.824 330.879 204.629 332.795 203.411V226.115C330.879 227.333 328.907 228.528 326.892 229.691V206.987Z" fill="#42E8E0"/>
<path opacity="0.75" d="M315.634 225.227C317.813 224.163 319.949 223.066 322.041 221.947V232.4C319.949 233.519 317.813 234.616 315.634 235.68V225.227Z" fill="#42E8E0"/>
<defs>
<linearGradient id="paint0_linear_31_4931" x1="293.445" y1="239.42" x2="242.531" y2="239.42" gradientUnits="userSpaceOnUse">
<stop stop-color="#5761D7"/>
<stop offset="0.07" stop-color="#5471D8"/>
<stop offset="0.28" stop-color="#4D9BDA"/>
<stop offset="0.48" stop-color="#48BDDD"/>
<stop offset="0.67" stop-color="#44D4DE"/>
<stop offset="0.85" stop-color="#42E3DF"/>
<stop offset="1" stop-color="#42E8E0"/>
</linearGradient>
<linearGradient id="paint1_linear_31_4931" x1="157.884" y1="239.343" x2="107.265" y2="239.343" gradientUnits="userSpaceOnUse">
<stop stop-color="#42E8E0"/>
<stop offset="0.15" stop-color="#42E3DF"/>
<stop offset="0.33" stop-color="#44D4DE"/>
<stop offset="0.52" stop-color="#48BDDD"/>
<stop offset="0.72" stop-color="#4D9BDA"/>
<stop offset="0.93" stop-color="#5471D8"/>
<stop offset="1" stop-color="#5761D7"/>
</linearGradient>
<linearGradient id="paint2_linear_31_4931" x1="296.019" y1="322.998" x2="105.294" y2="322.998" gradientUnits="userSpaceOnUse">
<stop stop-color="#5761D7"/>
<stop offset="0.07" stop-color="#5471D8"/>
<stop offset="0.28" stop-color="#4D9BDA"/>
<stop offset="0.48" stop-color="#48BDDD"/>
<stop offset="0.67" stop-color="#44D4DE"/>
<stop offset="0.85" stop-color="#42E3DF"/>
<stop offset="1" stop-color="#42E8E0"/>
</linearGradient>
<linearGradient id="paint3_linear_31_4931" x1="325.337" y1="196.073" x2="111.251" y2="196.073" gradientUnits="userSpaceOnUse">
<stop stop-color="#5761D7"/>
<stop offset="0.16" stop-color="#5E67D9"/>
<stop offset="0.41" stop-color="#7179E1"/>
<stop offset="0.69" stop-color="#9197EE"/>
<stop offset="1" stop-color="#BCBEFF"/>
</linearGradient>
<linearGradient id="paint4_linear_31_4931" x1="264.752" y1="167.095" x2="136.254" y2="167.095" gradientUnits="userSpaceOnUse">
<stop stop-color="#42E8E0"/>
<stop offset="0.15" stop-color="#42E3DF"/>
<stop offset="0.33" stop-color="#44D4DE"/>
<stop offset="0.52" stop-color="#48BDDD"/>
<stop offset="0.72" stop-color="#4D9BDA"/>
<stop offset="0.93" stop-color="#5471D8"/>
<stop offset="1" stop-color="#5761D7"/>
</linearGradient>
<linearGradient id="paint5_linear_31_4931" x1="200.498" y1="143.842" x2="136.254" y2="143.842" gradientUnits="userSpaceOnUse">
<stop stop-color="#42E8E0"/>
<stop offset="0.15" stop-color="#42E3DF"/>
<stop offset="0.33" stop-color="#44D4DE"/>
<stop offset="0.52" stop-color="#48BDDD"/>
<stop offset="0.72" stop-color="#4D9BDA"/>
<stop offset="0.93" stop-color="#5471D8"/>
<stop offset="1" stop-color="#5761D7"/>
</linearGradient>
<linearGradient id="paint6_linear_31_4931" x1="264.752" y1="143.842" x2="200.498" y2="143.842" gradientUnits="userSpaceOnUse">
<stop stop-color="#42E8E0"/>
<stop offset="0.15" stop-color="#42E3DF"/>
<stop offset="0.33" stop-color="#44D4DE"/>
<stop offset="0.52" stop-color="#48BDDD"/>
<stop offset="0.72" stop-color="#4D9BDA"/>
<stop offset="0.93" stop-color="#5471D8"/>
<stop offset="1" stop-color="#5761D7"/>
</linearGradient>
<linearGradient id="paint7_linear_31_4931" x1="264.752" y1="157.728" x2="136.254" y2="157.728" gradientUnits="userSpaceOnUse">
<stop stop-color="#42E8E0"/>
<stop offset="0.15" stop-color="#42E3DF"/>
<stop offset="0.33" stop-color="#44D4DE"/>
<stop offset="0.52" stop-color="#48BDDD"/>
<stop offset="0.72" stop-color="#4D9BDA"/>
<stop offset="0.93" stop-color="#5471D8"/>
<stop offset="1" stop-color="#5761D7"/>
</linearGradient>
<linearGradient id="paint8_linear_31_4931" x1="200.498" y1="180.992" x2="136.254" y2="180.992" gradientUnits="userSpaceOnUse">
<stop stop-color="#42E8E0"/>
<stop offset="0.15" stop-color="#42E3DF"/>
<stop offset="0.33" stop-color="#44D4DE"/>
<stop offset="0.52" stop-color="#48BDDD"/>
<stop offset="0.72" stop-color="#4D9BDA"/>
<stop offset="0.93" stop-color="#5471D8"/>
<stop offset="1" stop-color="#5761D7"/>
</linearGradient>
<linearGradient id="paint9_linear_31_4931" x1="264.752" y1="180.992" x2="200.498" y2="180.992" gradientUnits="userSpaceOnUse">
<stop stop-color="#42E8E0"/>
<stop offset="0.15" stop-color="#42E3DF"/>
<stop offset="0.33" stop-color="#44D4DE"/>
<stop offset="0.52" stop-color="#48BDDD"/>
<stop offset="0.72" stop-color="#4D9BDA"/>
<stop offset="0.93" stop-color="#5471D8"/>
<stop offset="1" stop-color="#5761D7"/>
</linearGradient>
<linearGradient id="paint10_linear_31_4931" x1="400.499" y1="274.54" x2="258.619" y2="274.54" gradientUnits="userSpaceOnUse">
<stop stop-color="#5761D7"/>
<stop offset="0.07" stop-color="#5471D8"/>
<stop offset="0.28" stop-color="#4D9BDA"/>
<stop offset="0.48" stop-color="#48BDDD"/>
<stop offset="0.67" stop-color="#44D4DE"/>
<stop offset="0.85" stop-color="#42E3DF"/>
<stop offset="1" stop-color="#42E8E0"/>
</linearGradient>
<linearGradient id="paint11_linear_31_4931" x1="400.499" y1="263.605" x2="258.619" y2="263.605" gradientUnits="userSpaceOnUse">
<stop stop-color="#5761D7"/>
<stop offset="0.07" stop-color="#5471D8"/>
<stop offset="0.28" stop-color="#4D9BDA"/>
<stop offset="0.48" stop-color="#48BDDD"/>
<stop offset="0.67" stop-color="#44D4DE"/>
<stop offset="0.85" stop-color="#42E3DF"/>
<stop offset="1" stop-color="#42E8E0"/>
</linearGradient>
<linearGradient id="paint12_linear_31_4931" x1="400.499" y1="252.67" x2="258.619" y2="252.67" gradientUnits="userSpaceOnUse">
<stop stop-color="#5761D7"/>
<stop offset="0.07" stop-color="#5471D8"/>
<stop offset="0.28" stop-color="#4D9BDA"/>
<stop offset="0.48" stop-color="#48BDDD"/>
<stop offset="0.67" stop-color="#44D4DE"/>
<stop offset="0.85" stop-color="#42E3DF"/>
<stop offset="1" stop-color="#42E8E0"/>
</linearGradient>
<linearGradient id="paint13_linear_31_4931" x1="400.499" y1="241.745" x2="258.619" y2="241.745" gradientUnits="userSpaceOnUse">
<stop stop-color="#5761D7"/>
<stop offset="0.07" stop-color="#5471D8"/>
<stop offset="0.28" stop-color="#4D9BDA"/>
<stop offset="0.48" stop-color="#48BDDD"/>
<stop offset="0.67" stop-color="#44D4DE"/>
<stop offset="0.85" stop-color="#42E3DF"/>
<stop offset="1" stop-color="#42E8E0"/>
</linearGradient>
<linearGradient id="paint14_linear_31_4931" x1="400.499" y1="252.735" x2="258.619" y2="252.735" gradientUnits="userSpaceOnUse">
<stop stop-color="#5761D7"/>
<stop offset="0.07" stop-color="#5471D8"/>
<stop offset="0.28" stop-color="#4D9BDA"/>
<stop offset="0.48" stop-color="#48BDDD"/>
<stop offset="0.67" stop-color="#44D4DE"/>
<stop offset="0.85" stop-color="#42E3DF"/>
<stop offset="1" stop-color="#42E8E0"/>
</linearGradient>
<linearGradient id="paint15_linear_31_4931" x1="400.499" y1="241.745" x2="258.619" y2="241.745" gradientUnits="userSpaceOnUse">
<stop stop-color="#5761D7"/>
<stop offset="0.07" stop-color="#5471D8"/>
<stop offset="0.28" stop-color="#4D9BDA"/>
<stop offset="0.48" stop-color="#48BDDD"/>
<stop offset="0.67" stop-color="#44D4DE"/>
<stop offset="0.85" stop-color="#42E3DF"/>
<stop offset="1" stop-color="#42E8E0"/>
</linearGradient>
<linearGradient id="paint16_linear_31_4931" x1="400.499" y1="261.444" x2="258.619" y2="261.444" gradientUnits="userSpaceOnUse">
<stop stop-color="#5761D7"/>
<stop offset="0.07" stop-color="#5471D8"/>
<stop offset="0.28" stop-color="#4D9BDA"/>
<stop offset="0.48" stop-color="#48BDDD"/>
<stop offset="0.67" stop-color="#44D4DE"/>
<stop offset="0.85" stop-color="#42E3DF"/>
<stop offset="1" stop-color="#42E8E0"/>
</linearGradient>
<linearGradient id="paint17_linear_31_4931" x1="142.387" y1="274.54" x2="0.495988" y2="274.54" gradientUnits="userSpaceOnUse">
<stop stop-color="#5761D7"/>
<stop offset="0.07" stop-color="#5471D8"/>
<stop offset="0.28" stop-color="#4D9BDA"/>
<stop offset="0.48" stop-color="#48BDDD"/>
<stop offset="0.67" stop-color="#44D4DE"/>
<stop offset="0.85" stop-color="#42E3DF"/>
<stop offset="1" stop-color="#42E8E0"/>
</linearGradient>
<linearGradient id="paint18_linear_31_4931" x1="142.387" y1="263.605" x2="0.495988" y2="263.605" gradientUnits="userSpaceOnUse">
<stop stop-color="#5761D7"/>
<stop offset="0.07" stop-color="#5471D8"/>
<stop offset="0.28" stop-color="#4D9BDA"/>
<stop offset="0.48" stop-color="#48BDDD"/>
<stop offset="0.67" stop-color="#44D4DE"/>
<stop offset="0.85" stop-color="#42E3DF"/>
<stop offset="1" stop-color="#42E8E0"/>
</linearGradient>
<linearGradient id="paint19_linear_31_4931" x1="142.387" y1="252.67" x2="0.495988" y2="252.67" gradientUnits="userSpaceOnUse">
<stop stop-color="#5761D7"/>
<stop offset="0.07" stop-color="#5471D8"/>
<stop offset="0.28" stop-color="#4D9BDA"/>
<stop offset="0.48" stop-color="#48BDDD"/>
<stop offset="0.67" stop-color="#44D4DE"/>
<stop offset="0.85" stop-color="#42E3DF"/>
<stop offset="1" stop-color="#42E8E0"/>
</linearGradient>
<linearGradient id="paint20_linear_31_4931" x1="142.387" y1="241.745" x2="0.495988" y2="241.745" gradientUnits="userSpaceOnUse">
<stop stop-color="#5761D7"/>
<stop offset="0.07" stop-color="#5471D8"/>
<stop offset="0.28" stop-color="#4D9BDA"/>
<stop offset="0.48" stop-color="#48BDDD"/>
<stop offset="0.67" stop-color="#44D4DE"/>
<stop offset="0.85" stop-color="#42E3DF"/>
<stop offset="1" stop-color="#42E8E0"/>
</linearGradient>
<linearGradient id="paint21_linear_31_4931" x1="142.387" y1="252.735" x2="0.496006" y2="252.735" gradientUnits="userSpaceOnUse">
<stop stop-color="#5761D7"/>
<stop offset="0.07" stop-color="#5471D8"/>
<stop offset="0.28" stop-color="#4D9BDA"/>
<stop offset="0.48" stop-color="#48BDDD"/>
<stop offset="0.67" stop-color="#44D4DE"/>
<stop offset="0.85" stop-color="#42E3DF"/>
<stop offset="1" stop-color="#42E8E0"/>
</linearGradient>
<linearGradient id="paint22_linear_31_4931" x1="142.387" y1="241.745" x2="0.495988" y2="241.745" gradientUnits="userSpaceOnUse">
<stop stop-color="#5761D7"/>
<stop offset="0.07" stop-color="#5471D8"/>
<stop offset="0.28" stop-color="#4D9BDA"/>
<stop offset="0.48" stop-color="#48BDDD"/>
<stop offset="0.67" stop-color="#44D4DE"/>
<stop offset="0.85" stop-color="#42E3DF"/>
<stop offset="1" stop-color="#42E8E0"/>
</linearGradient>
<linearGradient id="paint23_linear_31_4931" x1="142.387" y1="261.444" x2="0.496041" y2="261.444" gradientUnits="userSpaceOnUse">
<stop stop-color="#5761D7"/>
<stop offset="0.07" stop-color="#5471D8"/>
<stop offset="0.28" stop-color="#4D9BDA"/>
<stop offset="0.48" stop-color="#48BDDD"/>
<stop offset="0.67" stop-color="#44D4DE"/>
<stop offset="0.85" stop-color="#42E3DF"/>
<stop offset="1" stop-color="#42E8E0"/>
</linearGradient>
<linearGradient id="paint24_linear_31_4931" x1="134.075" y1="352.579" x2="267.479" y2="352.579" gradientUnits="userSpaceOnUse">
<stop stop-color="#5761D7"/>
<stop offset="0.07" stop-color="#5471D8"/>
<stop offset="0.28" stop-color="#4D9BDA"/>
<stop offset="0.48" stop-color="#48BDDD"/>
<stop offset="0.67" stop-color="#44D4DE"/>
<stop offset="0.85" stop-color="#42E3DF"/>
<stop offset="1" stop-color="#42E8E0"/>
</linearGradient>
<linearGradient id="paint25_linear_31_4931" x1="134.075" y1="342.302" x2="267.479" y2="342.302" gradientUnits="userSpaceOnUse">
<stop stop-color="#5761D7"/>
<stop offset="0.07" stop-color="#5471D8"/>
<stop offset="0.28" stop-color="#4D9BDA"/>
<stop offset="0.48" stop-color="#48BDDD"/>
<stop offset="0.67" stop-color="#44D4DE"/>
<stop offset="0.85" stop-color="#42E3DF"/>
<stop offset="1" stop-color="#42E8E0"/>
</linearGradient>
<linearGradient id="paint26_linear_31_4931" x1="134.075" y1="332.025" x2="267.479" y2="332.025" gradientUnits="userSpaceOnUse">
<stop stop-color="#5761D7"/>
<stop offset="0.07" stop-color="#5471D8"/>
<stop offset="0.28" stop-color="#4D9BDA"/>
<stop offset="0.48" stop-color="#48BDDD"/>
<stop offset="0.67" stop-color="#44D4DE"/>
<stop offset="0.85" stop-color="#42E3DF"/>
<stop offset="1" stop-color="#42E8E0"/>
</linearGradient>
<linearGradient id="paint27_linear_31_4931" x1="134.075" y1="321.748" x2="267.479" y2="321.748" gradientUnits="userSpaceOnUse">
<stop stop-color="#5761D7"/>
<stop offset="0.07" stop-color="#5471D8"/>
<stop offset="0.28" stop-color="#4D9BDA"/>
<stop offset="0.48" stop-color="#48BDDD"/>
<stop offset="0.67" stop-color="#44D4DE"/>
<stop offset="0.85" stop-color="#42E3DF"/>
<stop offset="1" stop-color="#42E8E0"/>
</linearGradient>
<linearGradient id="paint28_linear_31_4931" x1="134.075" y1="337.158" x2="267.479" y2="337.158" gradientUnits="userSpaceOnUse">
<stop stop-color="#5761D7"/>
<stop offset="0.07" stop-color="#5471D8"/>
<stop offset="0.28" stop-color="#4D9BDA"/>
<stop offset="0.48" stop-color="#48BDDD"/>
<stop offset="0.67" stop-color="#44D4DE"/>
<stop offset="0.85" stop-color="#42E3DF"/>
<stop offset="1" stop-color="#42E8E0"/>
</linearGradient>
<linearGradient id="paint29_linear_31_4931" x1="119.903" y1="304.297" x2="281.65" y2="304.297" gradientUnits="userSpaceOnUse">
<stop stop-color="#5761D7"/>
<stop offset="0.07" stop-color="#5471D8"/>
<stop offset="0.28" stop-color="#4D9BDA"/>
<stop offset="0.48" stop-color="#48BDDD"/>
<stop offset="0.67" stop-color="#44D4DE"/>
<stop offset="0.85" stop-color="#42E3DF"/>
<stop offset="1" stop-color="#42E8E0"/>
</linearGradient>
<linearGradient id="paint30_linear_31_4931" x1="119.903" y1="291.837" x2="281.65" y2="291.837" gradientUnits="userSpaceOnUse">
<stop stop-color="#5761D7"/>
<stop offset="0.07" stop-color="#5471D8"/>
<stop offset="0.28" stop-color="#4D9BDA"/>
<stop offset="0.48" stop-color="#48BDDD"/>
<stop offset="0.67" stop-color="#44D4DE"/>
<stop offset="0.85" stop-color="#42E3DF"/>
<stop offset="1" stop-color="#42E8E0"/>
</linearGradient>
<linearGradient id="paint31_linear_31_4931" x1="119.903" y1="279.377" x2="281.65" y2="279.377" gradientUnits="userSpaceOnUse">
<stop stop-color="#5761D7"/>
<stop offset="0.07" stop-color="#5471D8"/>
<stop offset="0.28" stop-color="#4D9BDA"/>
<stop offset="0.48" stop-color="#48BDDD"/>
<stop offset="0.67" stop-color="#44D4DE"/>
<stop offset="0.85" stop-color="#42E3DF"/>
<stop offset="1" stop-color="#42E8E0"/>
</linearGradient>
<linearGradient id="paint32_linear_31_4931" x1="119.903" y1="266.917" x2="281.65" y2="266.917" gradientUnits="userSpaceOnUse">
<stop stop-color="#5761D7"/>
<stop offset="0.07" stop-color="#5471D8"/>
<stop offset="0.28" stop-color="#4D9BDA"/>
<stop offset="0.48" stop-color="#48BDDD"/>
<stop offset="0.67" stop-color="#44D4DE"/>
<stop offset="0.85" stop-color="#42E3DF"/>
<stop offset="1" stop-color="#42E8E0"/>
</linearGradient>
<linearGradient id="paint33_linear_31_4931" x1="119.903" y1="285.607" x2="281.65" y2="285.607" gradientUnits="userSpaceOnUse">
<stop stop-color="#5761D7"/>
<stop offset="0.07" stop-color="#5471D8"/>
<stop offset="0.28" stop-color="#4D9BDA"/>
<stop offset="0.48" stop-color="#48BDDD"/>
<stop offset="0.67" stop-color="#44D4DE"/>
<stop offset="0.85" stop-color="#42E3DF"/>
<stop offset="1" stop-color="#42E8E0"/>
</linearGradient>
<linearGradient id="paint34_linear_31_4931" x1="119.903" y1="266.917" x2="281.65" y2="266.917" gradientUnits="userSpaceOnUse">
<stop stop-color="#5761D7"/>
<stop offset="0.07" stop-color="#5471D8"/>
<stop offset="0.28" stop-color="#4D9BDA"/>
<stop offset="0.48" stop-color="#48BDDD"/>
<stop offset="0.67" stop-color="#44D4DE"/>
<stop offset="0.85" stop-color="#42E3DF"/>
<stop offset="1" stop-color="#42E8E0"/>
</linearGradient>
<linearGradient id="paint35_linear_31_4931" x1="119.903" y1="289.38" x2="281.65" y2="289.38" gradientUnits="userSpaceOnUse">
<stop stop-color="#5761D7"/>
<stop offset="0.07" stop-color="#5471D8"/>
<stop offset="0.28" stop-color="#4D9BDA"/>
<stop offset="0.48" stop-color="#48BDDD"/>
<stop offset="0.67" stop-color="#44D4DE"/>
<stop offset="0.85" stop-color="#42E3DF"/>
<stop offset="1" stop-color="#42E8E0"/>
</linearGradient>
<linearGradient id="paint36_linear_31_4931" x1="164.799" y1="175.967" x2="181.844" y2="176.954" gradientUnits="userSpaceOnUse">
<stop stop-color="#5761D7"/>
<stop offset="0.07" stop-color="#5471D8"/>
<stop offset="0.28" stop-color="#4D9BDA"/>
<stop offset="0.48" stop-color="#48BDDD"/>
<stop offset="0.67" stop-color="#44D4DE"/>
<stop offset="0.85" stop-color="#42E3DF"/>
<stop offset="1" stop-color="#42E8E0"/>
</linearGradient>
<linearGradient id="paint37_linear_31_4931" x1="188.565" y1="182.896" x2="224.219" y2="184.961" gradientUnits="userSpaceOnUse">
<stop stop-color="#5761D7"/>
<stop offset="0.07" stop-color="#5471D8"/>
<stop offset="0.28" stop-color="#4D9BDA"/>
<stop offset="0.48" stop-color="#48BDDD"/>
<stop offset="0.67" stop-color="#44D4DE"/>
<stop offset="0.85" stop-color="#42E3DF"/>
<stop offset="1" stop-color="#42E8E0"/>
</linearGradient>
<linearGradient id="paint38_linear_31_4931" x1="174.809" y1="136.678" x2="232.789" y2="140.036" gradientUnits="userSpaceOnUse">
<stop stop-color="#5761D7"/>
<stop offset="0.07" stop-color="#5471D8"/>
<stop offset="0.28" stop-color="#4D9BDA"/>
<stop offset="0.48" stop-color="#48BDDD"/>
<stop offset="0.67" stop-color="#44D4DE"/>
<stop offset="0.85" stop-color="#42E3DF"/>
<stop offset="1" stop-color="#42E8E0"/>
</linearGradient>
</defs>
</svg>
