<svg width="40" height="40" viewBox="0 0 40 40" fill="none" xmlns="http://www.w3.org/2000/svg">
<path fill-rule="evenodd" clip-rule="evenodd" d="M17.9726 4.09313C15.1164 4.45893 12.2417 5.68859 9.93629 7.53078C9.25482 8.07529 8.08172 9.24839 7.53721 9.92986C5.6669 12.2705 4.45367 15.1331 4.094 18.0541C3.97117 19.0511 3.97054 20.8536 4.09249 21.8965C4.43123 24.7923 5.6644 27.7138 7.53721 30.0576C8.08435 30.7423 9.25807 31.9152 9.93629 32.455C12.0626 34.1471 14.5897 35.3023 17.1873 35.7692C19.1164 36.116 21.521 36.0692 23.434 35.6475C25.7455 35.138 28.1668 33.9727 30.064 32.4567C30.7455 31.9122 31.9186 30.7391 32.4631 30.0576C34.3359 27.7138 35.5691 24.7923 35.9078 21.8965C36.0288 20.8619 36.0288 19.1255 35.9078 18.0909C35.5676 15.1826 34.344 12.2837 32.4631 9.92986C31.9186 9.24839 30.7455 8.07529 30.064 7.53078C27.7255 5.66221 24.8581 4.44686 21.9398 4.08756C20.9729 3.96848 18.9234 3.97136 17.9726 4.09313ZM27.6742 14.4647C28.2842 14.7196 28.6 15.3908 28.4095 16.0272C28.323 16.3162 28.0115 16.6418 23.7678 20.8785C21.2658 23.3763 19.1288 25.4648 19.0188 25.5197C18.7429 25.6573 18.2359 25.6473 17.9505 25.4987C17.6636 25.3493 13.1117 20.7886 12.974 20.5125C12.8372 20.2383 12.8464 19.7301 12.9935 19.4443C13.2301 18.9843 13.7002 18.6797 14.1692 18.6824C14.671 18.6854 14.8867 18.8549 16.734 20.699L18.4997 22.4617L22.4535 18.5113C24.9774 15.9895 26.4864 14.5268 26.6261 14.4668C26.9116 14.3442 27.3835 14.3432 27.6742 14.4647Z" fill="#00B7CC"/>
</svg>
