<svg width="366" height="540" viewBox="0 0 366 540" fill="none" xmlns="http://www.w3.org/2000/svg">
<g clip-path="url(#clip0_64_4838)">
<g opacity="0.3">
<path d="M365.78 301.274V284.523L361.175 281.948C359.879 289.867 350.612 295.072 342.863 296.152L290.105 327.135L267.077 335.497L193.58 297.426L195.29 296.429C189.002 293.494 185.638 286.738 182.218 280.591L177.281 283.554L174.331 284.385V301.551C174.331 304.846 176.482 308.113 180.784 310.605L254.419 353.3C263.051 358.284 277.06 358.284 285.693 353.3L359.327 310.605C363.574 308.141 365.725 304.929 365.78 301.69C365.78 301.551 365.78 301.413 365.78 301.247V301.274Z" fill="url(#paint0_linear_64_4838)"/>
<path opacity="0.3" d="M342.835 296.152L290.077 327.135L270.028 334.389V357.038C275.681 357.038 281.363 355.792 285.665 353.3L359.299 310.605C363.546 308.141 365.698 304.929 365.753 301.689C365.753 301.551 365.753 301.412 365.753 301.246V284.495L361.533 282.142H361.092C359.658 289.922 350.502 295.044 342.807 296.124L342.835 296.152Z" fill="#0F054C"/>
<path d="M254.391 336.272L180.756 293.577C172.124 288.565 172.124 280.453 180.756 275.441L254.391 232.746C263.023 227.762 277.033 227.762 285.665 232.746L359.299 275.441C367.932 280.453 367.932 288.565 359.299 293.577L285.665 336.272C277.033 341.256 263.023 341.256 254.391 336.272Z" fill="url(#paint1_linear_64_4838)"/>
<g opacity="0.3">
<path d="M254.391 336.272L180.756 293.577C172.124 288.565 172.124 280.453 180.756 275.441L254.391 232.746C263.023 227.762 277.033 227.762 285.665 232.746L359.299 275.441C367.932 280.453 367.932 288.565 359.299 293.577L285.665 336.272C277.033 341.256 263.023 341.256 254.391 336.272Z" fill="#0F054C"/>
</g>
</g>
<path d="M270.028 282.335C265.008 282.335 259.962 281.228 256.156 279.013L182.521 236.318C178.688 234.103 176.592 231.112 176.592 227.901C176.592 224.689 178.688 221.698 182.521 219.483L256.156 176.788C263.823 172.358 276.26 172.358 283.927 176.788L357.562 219.483C361.395 221.698 363.491 224.689 363.491 227.901C363.491 231.112 361.395 234.103 357.562 236.318L283.927 279.013C280.094 281.228 275.075 282.335 270.055 282.335H270.028ZM256.79 277.877C264.098 282.086 275.957 282.114 283.265 277.877L356.9 235.182C360.32 233.217 362.195 230.614 362.195 227.901C362.195 225.187 360.32 222.584 356.9 220.591L283.265 177.896C275.957 173.66 264.098 173.66 256.79 177.896L183.155 220.591C179.736 222.557 177.86 225.159 177.86 227.901C177.86 230.642 179.736 233.217 183.155 235.21L256.79 277.905V277.877Z" fill="#42E8E0"/>
<path opacity="0.4" d="M365.78 211.509V186.202L361.175 183.627C359.879 191.546 350.612 196.751 342.863 197.831L290.105 228.814L267.077 237.176L193.58 199.105L195.29 198.108C189.002 195.173 185.638 188.417 182.218 182.271L177.281 185.233L174.331 186.064V211.814C174.331 215.109 176.482 218.376 180.784 220.868L254.419 263.563C263.051 268.546 277.06 268.574 285.693 263.563L359.327 220.868C363.574 218.403 365.725 215.192 365.78 211.952C365.78 211.814 365.78 211.675 365.78 211.509Z" fill="#42E8E0"/>
<path d="M365.78 189.027V172.275L361.175 169.7C359.879 177.619 350.612 182.825 342.863 183.904L290.105 214.887L267.077 223.249L193.58 185.178L195.29 184.181C189.002 181.246 185.638 174.49 182.218 168.344L177.281 171.306L174.331 172.137V189.304C174.331 192.598 176.482 195.866 180.784 198.358L254.419 241.053C263.051 246.036 277.06 246.064 285.693 241.053L359.327 198.358C363.574 195.893 365.725 192.682 365.78 189.442C365.78 189.304 365.78 189.165 365.78 188.999V189.027Z" fill="url(#paint2_linear_64_4838)"/>
<path opacity="0.3" d="M342.835 183.876L290.077 214.859L270.028 222.114V244.762C275.681 244.762 281.363 243.516 285.665 241.025L359.299 198.33C363.546 195.865 365.698 192.653 365.753 189.414C365.753 189.276 365.753 189.137 365.753 188.971V172.22L361.533 169.866H361.092C359.658 177.647 350.502 182.769 342.807 183.849L342.835 183.876Z" fill="#0F054C"/>
<path d="M254.391 224.024L180.756 181.329C172.124 176.318 172.124 168.205 180.756 163.194L254.391 120.499C263.023 115.515 277.033 115.515 285.665 120.499L359.299 163.194C367.932 168.177 367.932 176.318 359.299 181.329L285.665 224.024C277.033 229.036 263.023 229.036 254.391 224.024Z" fill="url(#paint3_linear_64_4838)"/>
<path d="M270.028 214.998C265.615 214.998 261.175 214.029 257.811 212.063L202.102 179.779C198.71 177.813 196.834 175.155 196.834 172.275C196.834 169.396 198.71 166.738 202.102 164.772L257.811 132.488C264.54 128.584 275.488 128.584 282.217 132.488L337.926 164.772C341.318 166.738 343.194 169.396 343.194 172.275C343.194 175.155 341.318 177.813 337.926 179.779L282.217 212.063C278.853 214.001 274.44 214.998 270.028 214.998ZM270.028 131.02C265.891 131.02 261.727 131.934 258.583 133.761L202.874 166.045C199.951 167.734 198.351 169.95 198.351 172.248C198.351 174.546 199.951 176.761 202.874 178.45L258.583 210.734C264.898 214.389 275.185 214.389 281.5 210.734L337.209 178.45C340.132 176.761 341.732 174.546 341.732 172.248C341.732 169.95 340.132 167.734 337.209 166.045L281.5 133.761C278.329 131.934 274.192 131.02 270.028 131.02Z" fill="#5351AF"/>
<path d="M359.299 181.329L285.665 224.024C277.033 229.036 263.023 229.036 254.391 224.024L180.756 181.329C176.895 179.087 174.772 176.235 174.358 173.3C173.862 176.927 175.985 180.637 180.756 183.406L254.391 226.101C263.023 231.085 277.033 231.085 285.665 226.101L359.299 183.406C364.071 180.637 366.194 176.927 365.698 173.3C365.284 176.235 363.16 179.087 359.299 181.329Z" fill="white"/>
<g opacity="0.3">
<path d="M208.997 389.46V372.681L204.364 370.106C203.067 378.025 193.773 383.231 186.024 384.31L133.211 415.321L110.155 423.683L36.576 385.556L38.2858 384.56C31.9979 381.597 28.6058 374.869 25.2136 368.694L20.2495 371.657L17.2986 372.488V389.682C17.2986 392.977 19.4497 396.244 23.7795 398.764L97.4968 441.486C106.129 446.498 120.166 446.498 128.798 441.486L202.516 398.764C206.763 396.299 208.914 393.088 208.997 389.848C208.997 389.71 208.997 389.571 208.997 389.405V389.46Z" fill="url(#paint4_linear_64_4838)"/>
<path opacity="0.3" d="M186.024 384.31L133.211 415.321L113.134 422.603V445.28C118.815 445.28 124.469 444.034 128.798 441.514L202.516 398.791C206.763 396.327 208.914 393.115 208.997 389.876C208.997 389.737 208.997 389.599 208.997 389.433V372.654L204.777 370.3H204.336C202.902 378.081 193.718 383.231 186.051 384.283L186.024 384.31Z" fill="#0F054C"/>
<path d="M97.4968 424.486L23.7795 381.763C15.1474 376.751 15.1474 368.611 23.7795 363.627L97.4968 320.905C106.129 315.893 120.166 315.893 128.798 320.905L202.516 363.627C211.148 368.639 211.148 376.779 202.516 381.763L128.798 424.486C120.166 429.497 106.129 429.497 97.4968 424.486Z" fill="url(#paint5_linear_64_4838)"/>
<g opacity="0.3">
<path d="M97.4968 424.486L23.7795 381.763C15.1474 376.751 15.1474 368.611 23.7795 363.627L97.4968 320.905C106.129 315.893 120.166 315.893 128.798 320.905L202.516 363.627C211.148 368.639 211.148 376.779 202.516 381.763L128.798 424.486C120.166 429.497 106.129 429.497 97.4968 424.486Z" fill="#0F054C"/>
</g>
</g>
<path d="M113.134 373.291C108.115 373.291 103.068 372.183 99.2343 369.968L25.517 327.245C21.6836 325.03 19.5876 322.04 19.5876 318.828C19.5876 315.616 21.6836 312.626 25.517 310.411L99.2343 267.688C106.901 263.258 119.367 263.258 127.033 267.688L200.751 310.411C204.584 312.626 206.68 315.616 206.68 318.828C206.68 322.04 204.584 325.03 200.751 327.245L127.033 369.968C123.2 372.183 118.181 373.291 113.134 373.291ZM99.8962 368.833C107.205 373.069 119.091 373.069 126.399 368.833L200.116 326.11C203.536 324.144 205.412 321.542 205.412 318.8C205.412 316.059 203.536 313.484 200.116 311.491L126.399 268.768C119.091 264.532 107.205 264.532 99.8962 268.768L26.1789 311.491C22.7592 313.457 20.8838 316.059 20.8838 318.8C20.8838 321.542 22.7592 324.117 26.1789 326.11L99.8962 368.833Z" fill="#42E8E0"/>
<path opacity="0.4" d="M208.997 302.409V277.074L204.364 274.499C203.067 282.418 193.773 287.624 186.024 288.703L133.211 319.714L110.155 328.076L36.576 289.949L38.2858 288.953C31.9979 285.99 28.6058 279.262 25.2136 273.087L20.2495 276.05L17.2986 276.881V302.658C17.2986 305.953 19.4497 309.22 23.7795 311.74L97.4968 354.463C106.129 359.474 120.166 359.474 128.798 354.463L202.516 311.74C206.763 309.276 208.914 306.064 208.997 302.824C208.997 302.686 208.997 302.547 208.997 302.381V302.409Z" fill="#42E8E0"/>
<path d="M208.997 279.871V263.092L204.364 260.517C203.067 268.436 193.773 273.641 186.024 274.721L133.211 305.732L110.155 314.093L36.576 275.967L38.2858 274.97C31.9979 272.008 28.6058 265.279 25.2136 259.105L20.2495 262.068L17.2986 262.898V280.093C17.2986 283.387 19.4497 286.655 23.7795 289.174L97.4968 331.897C106.129 336.908 120.166 336.908 128.798 331.897L202.516 289.174C206.763 286.71 208.914 283.498 208.997 280.259C208.997 280.12 208.997 279.982 208.997 279.816V279.871Z" fill="url(#paint6_linear_64_4838)"/>
<path opacity="0.3" d="M186.024 274.721L133.211 305.732L113.134 313.014V335.69C118.815 335.69 124.469 334.444 128.798 331.925L202.516 289.202C206.763 286.738 208.914 283.526 208.997 280.286C208.997 280.148 208.997 280.009 208.997 279.843V263.064L204.777 260.711H204.336C202.902 268.491 193.718 273.641 186.051 274.693L186.024 274.721Z" fill="#0F054C"/>
<path d="M38.2582 274.998L108.115 234.49C110.872 232.884 115.368 232.884 118.153 234.49L186.796 274.278L186.024 274.721C193.773 273.641 203.067 268.436 204.364 260.517L127.337 217.49L104.915 211.537L86.6585 222.307L25.186 259.132C28.5782 265.279 31.9703 272.035 38.2582 274.998Z" fill="url(#paint7_linear_64_4838)"/>
<path opacity="0.3" d="M113.134 213.724L104.915 211.537L86.6585 222.307L25.186 259.132C28.5782 265.279 31.9703 272.035 38.2582 274.998L108.115 234.49C109.493 233.687 111.314 233.299 113.134 233.299V213.752V213.724Z" fill="#0F054C"/>
<path d="M97.4968 314.896L23.7795 272.174C15.1474 267.162 15.1474 259.022 23.7795 254.038L97.4968 211.315C106.129 206.304 120.166 206.304 128.798 211.315L202.516 254.038C211.148 259.049 211.148 267.19 202.516 272.174L128.798 314.896C120.166 319.908 106.129 319.908 97.4968 314.896ZM118.153 217.462C115.395 215.856 110.9 215.856 108.115 217.462L34.3972 260.185C31.6393 261.791 31.6393 264.393 34.3972 265.999L108.115 308.722C110.872 310.328 115.368 310.328 118.153 308.722L191.87 265.999C194.628 264.393 194.628 261.791 191.87 260.185L118.153 217.462Z" fill="url(#paint8_linear_64_4838)"/>
<path d="M191.871 260.185L118.153 217.462C115.395 215.856 110.9 215.856 108.115 217.462L34.3974 260.185C32.5496 261.265 31.9429 262.76 32.5496 264.144C32.853 263.452 33.4597 262.815 34.3974 262.289L108.115 219.567C110.873 217.961 115.368 217.961 118.153 219.567L191.871 262.289C192.781 262.815 193.387 263.48 193.718 264.144C194.325 262.788 193.718 261.265 191.871 260.185Z" fill="white"/>
<path d="M202.516 272.174L128.798 314.897C120.166 319.908 106.129 319.908 97.4968 314.897L23.7795 272.174C19.9185 269.931 17.795 267.079 17.3813 264.145C16.8849 267.772 19.0084 271.51 23.7795 274.251L97.4968 316.973C106.129 321.985 120.166 321.985 128.798 316.973L202.516 274.251C207.287 271.482 209.41 267.744 208.914 264.145C208.5 267.079 206.377 269.931 202.516 272.174Z" fill="white"/>
<path d="M99.5653 313.706L25.848 270.983C18.3742 266.636 18.3742 259.576 25.848 255.256L99.5653 212.534C107.039 208.187 119.229 208.187 126.703 212.534L200.42 255.256C207.894 259.603 207.894 266.664 200.42 270.983L126.703 313.706C119.229 318.053 107.039 318.053 99.5653 313.706ZM120.222 216.272C116.305 214.001 109.935 214.001 106.046 216.272L32.329 258.994C28.4128 261.265 28.4128 264.947 32.329 267.218L106.046 309.94C109.962 312.211 116.333 312.211 120.249 309.94L193.967 267.218C197.883 264.947 197.883 261.265 193.967 258.994L120.249 216.272H120.222Z" fill="url(#paint9_linear_64_4838)"/>
<path opacity="0.4" d="M118.153 217.462C115.395 215.856 110.9 215.856 108.115 217.462L34.3972 260.185C31.6394 261.791 31.6394 264.393 34.3972 265.999L108.115 308.722C110.872 310.328 115.368 310.328 118.153 308.722L191.87 265.999C194.628 264.393 194.628 261.791 191.87 260.185L118.153 217.462Z" fill="#42E8E0"/>
<path d="M36.9896 179.308C29.1298 187.365 8.4459 198.135 2.02011 191.823C-4.40567 185.51 5.90868 164.522 13.7686 156.465C21.6284 148.408 33.1838 146.996 39.6096 153.309C46.0354 159.621 44.8495 171.25 36.9896 179.308Z" fill="url(#paint10_radial_64_4838)"/>
<path style="mix-blend-mode:lighten" d="M36.9896 179.308C29.1298 187.365 8.4459 198.135 2.02011 191.823C-4.40567 185.51 5.90868 164.522 13.7686 156.465C21.6284 148.408 33.1838 146.996 39.6096 153.309C46.0354 159.621 44.8495 171.25 36.9896 179.308Z" fill="url(#paint11_linear_64_4838)"/>
<path d="M37.8997 157.434C37.4033 157.434 36.9345 157.351 36.4381 157.13C34.5076 156.327 33.5975 154.112 34.4249 152.174L46.0906 124.181C46.8903 122.243 49.0966 121.329 51.0271 122.16C52.9576 122.963 53.8677 125.178 53.0403 127.116L41.3746 155.109C40.7679 156.576 39.3614 157.434 37.8997 157.434Z" fill="#42E8E0"/>
<path d="M186.153 147.202L179.148 150.047L203.334 210.056L210.339 207.21L186.153 147.202Z" fill="#42E8E0"/>
<path d="M80.288 115.902C77.7783 128.666 65.4232 136.973 52.7095 134.426C39.9958 131.906 31.7223 119.502 34.2595 106.737C36.7691 93.9733 49.1243 85.6669 61.838 88.2142C74.5517 90.7338 82.8252 103.138 80.288 115.902Z" fill="url(#paint12_radial_64_4838)"/>
<g style="mix-blend-mode:lighten">
<path d="M69.891 91.4537C80.8121 98.4311 84.0388 112.995 77.089 123.987C70.1392 134.952 55.6329 138.191 44.6842 131.214C33.7632 124.236 30.5365 109.672 37.4863 98.6803C44.436 87.7158 58.9423 84.4763 69.891 91.4537Z" fill="url(#paint13_linear_64_4838)"/>
</g>
<path d="M174.303 154.112C174.303 199.852 147.166 236.927 113.713 236.927C80.2603 236.927 53.123 199.852 53.123 154.112C53.123 108.371 80.2603 94.6655 113.713 94.6655C147.166 94.6655 174.303 108.371 174.303 154.112Z" fill="url(#paint14_radial_64_4838)"/>
<g style="mix-blend-mode:lighten">
<path d="M174.303 154.112C174.303 199.852 147.166 236.927 113.713 236.927C80.2603 236.927 53.123 199.852 53.123 154.112C53.123 108.371 80.2603 94.6655 113.713 94.6655C147.166 94.6655 174.303 108.371 174.303 154.112Z" fill="url(#paint15_linear_64_4838)"/>
</g>
<path d="M142.947 136.198C126.786 145.556 100.614 145.556 84.4801 136.198C68.3191 126.839 68.3191 111.666 84.4801 102.307C100.641 92.9489 126.813 92.9489 142.947 102.307C159.108 111.666 159.108 126.839 142.947 136.198Z" fill="#393091"/>
<path d="M84.4798 108.676C100.641 99.3172 126.813 99.3172 142.946 108.676C149.62 112.552 153.536 117.397 154.695 122.437C156.349 115.293 152.433 107.79 142.946 102.307C126.785 92.9489 100.613 92.9489 84.4798 102.307C74.9928 107.79 71.1042 115.293 72.7313 122.437C73.8896 117.397 77.8058 112.552 84.4798 108.676Z" fill="#42E8E0"/>
<path d="M95.6766 30.6783C95.6766 41.8366 87.8719 55.4314 78.247 60.9967C68.6221 66.5897 60.8174 62.0488 60.8174 50.8906C60.8174 39.7323 68.6221 26.1374 78.247 20.5722C87.8719 14.9792 95.6766 19.52 95.6766 30.6783Z" fill="#BCBEFF"/>
<path d="M116.112 124.098C150.246 124.098 177.916 96.3176 177.916 62.0489C177.916 27.7802 150.246 0 116.112 0C81.9794 0 54.3091 27.7802 54.3091 62.0489C54.3091 96.3176 81.9794 124.098 116.112 124.098Z" fill="url(#paint16_radial_64_4838)"/>
<g style="mix-blend-mode:lighten">
<path d="M116.112 124.098C150.246 124.098 177.916 96.3176 177.916 62.0489C177.916 27.7802 150.246 0 116.112 0C81.9794 0 54.3091 27.7802 54.3091 62.0489C54.3091 96.3176 81.9794 124.098 116.112 124.098Z" fill="url(#paint17_linear_64_4838)"/>
</g>
<path d="M96.8349 91.4259C95.2629 103.636 86.0793 107.457 76.3441 99.9815C66.6089 92.5057 59.99 76.5574 61.562 64.347C63.134 52.1365 72.3176 48.3156 82.0528 55.7913C91.788 63.2671 98.4069 79.2154 96.8349 91.4259Z" fill="#393091"/>
<path d="M88.7823 80.8488C88.2031 85.2789 84.8661 86.6633 81.3361 83.9499C77.806 81.2365 75.4067 75.4497 75.9583 70.9919C76.5374 66.5618 79.8744 65.1774 83.4045 67.8908C86.9345 70.6043 89.3338 76.3911 88.7823 80.8488Z" fill="#42E8E0"/>
<path d="M81.0324 98.2095C71.2972 90.7338 64.6784 74.7855 66.2504 62.575C66.8847 57.5912 68.7876 54.0194 71.4903 52.0259C66.3883 52.4966 62.5548 56.8436 61.562 64.3471C59.99 76.5575 66.6089 92.5058 76.3441 99.9816C82.108 104.412 87.6789 104.855 91.595 101.975C88.4235 102.28 84.7555 101.089 81.0324 98.2095Z" fill="#453C9E"/>
<path d="M77.1717 99.594C67.4365 92.1182 60.8176 76.1699 62.3896 63.9595C63.1342 58.3111 65.4784 54.4625 68.7602 52.6904C65.0371 54.241 62.3345 58.228 61.5347 64.3471C59.9627 76.5575 66.5815 92.5058 76.3168 99.9816C81.5567 103.996 86.6035 104.744 90.4094 102.695C86.7138 104.218 81.9979 103.332 77.1441 99.594H77.1717Z" fill="#42E8E0"/>
<path d="M205.66 153.198C203.15 165.962 190.795 174.269 178.081 171.721C165.368 169.202 157.094 156.798 159.631 144.033C162.141 131.269 174.496 122.963 187.21 125.51C199.923 128.03 208.197 140.434 205.66 153.198Z" fill="url(#paint18_radial_64_4838)"/>
<g style="mix-blend-mode:lighten">
<path d="M205.66 153.198C203.15 165.962 190.795 174.269 178.081 171.721C165.368 169.202 157.094 156.798 159.631 144.033C162.141 131.269 174.496 122.963 187.21 125.51C199.923 128.03 208.197 140.434 205.66 153.198Z" fill="url(#paint19_linear_64_4838)"/>
</g>
<path d="M220.083 226.682C218.76 237.868 208.914 259.077 199.979 258.025C191.071 256.945 186.465 234.019 187.789 222.833C189.113 211.647 197.414 203.424 206.349 204.504C215.257 205.584 221.407 215.524 220.083 226.71V226.682Z" fill="url(#paint20_radial_64_4838)"/>
<path style="mix-blend-mode:lighten" d="M220.083 226.682C218.76 237.868 208.914 259.077 199.979 258.025C191.071 256.945 186.465 234.019 187.789 222.833C189.113 211.647 197.414 203.424 206.349 204.504C215.257 205.584 221.407 215.524 220.083 226.71V226.682Z" fill="url(#paint21_linear_64_4838)"/>
<g opacity="0.3">
<path d="M365.78 484.237V467.485L361.175 464.91C359.879 472.829 350.612 478.035 342.863 479.114L290.105 510.097L267.077 518.459L193.58 480.388L195.29 479.391C189.002 476.456 185.638 469.7 182.218 463.554L177.281 466.516L174.331 467.347V484.514C174.331 487.808 176.482 491.076 180.784 493.568L254.419 536.263C263.051 541.246 277.06 541.246 285.693 536.263L359.327 493.568C363.574 491.103 365.725 487.892 365.78 484.652C365.78 484.514 365.78 484.375 365.78 484.209V484.237Z" fill="url(#paint22_linear_64_4838)"/>
<path opacity="0.3" d="M342.835 479.114L290.077 510.097L270.028 517.351V540C275.681 540 281.363 538.754 285.665 536.262L359.299 493.567C363.546 491.103 365.698 487.891 365.753 484.652C365.753 484.513 365.753 484.375 365.753 484.209V467.458L361.533 465.104H361.092C359.658 472.884 350.502 478.007 342.807 479.086L342.835 479.114Z" fill="#0F054C"/>
<path d="M254.391 519.234L180.756 476.539C172.124 471.528 172.124 463.415 180.756 458.404L254.391 415.709C263.023 410.725 277.033 410.725 285.665 415.709L359.299 458.404C367.932 463.387 367.932 471.528 359.299 476.539L285.665 519.234C277.033 524.218 263.023 524.218 254.391 519.234Z" fill="url(#paint23_linear_64_4838)"/>
<g opacity="0.3">
<path d="M254.391 519.234L180.756 476.539C172.124 471.528 172.124 463.415 180.756 458.404L254.391 415.709C263.023 410.725 277.033 410.725 285.665 415.709L359.299 458.404C367.932 463.387 367.932 471.528 359.299 476.539L285.665 519.234C277.033 524.218 263.023 524.218 254.391 519.234Z" fill="#0F054C"/>
</g>
</g>
<path d="M270.028 465.298C265.008 465.298 259.962 464.19 256.156 461.975L182.521 419.28C178.688 417.065 176.592 414.075 176.592 410.863C176.592 407.651 178.688 404.661 182.521 402.446L256.156 359.751C263.823 355.321 276.26 355.321 283.927 359.751L357.562 402.446C361.395 404.661 363.491 407.651 363.491 410.863C363.491 414.075 361.395 417.065 357.562 419.28L283.927 461.975C280.094 464.19 275.075 465.298 270.055 465.298H270.028ZM270.028 357.73C265.229 357.73 260.43 358.782 256.79 360.886L183.155 403.581C179.736 405.547 177.86 408.15 177.86 410.891C177.86 413.632 179.736 416.207 183.155 418.2L256.79 460.895C264.098 465.132 275.957 465.132 283.265 460.895L356.9 418.2C360.32 416.234 362.195 413.632 362.195 410.891C362.195 408.15 360.32 405.575 356.9 403.581L283.265 360.886C279.625 358.782 274.826 357.73 270.028 357.73Z" fill="#42E8E0"/>
<path opacity="0.4" d="M365.78 394.471V369.165L361.175 366.59C359.879 374.508 350.612 379.714 342.863 380.794L290.105 411.777L267.077 420.138L193.58 382.067L195.29 381.07C189.002 378.136 185.638 371.38 182.218 365.233L177.281 368.196L174.331 369.026V394.776C174.331 398.071 176.482 401.338 180.784 403.83L254.419 446.525C263.051 451.509 277.06 451.509 285.693 446.525L359.327 403.83C363.574 401.366 365.725 398.154 365.78 394.915C365.78 394.776 365.78 394.638 365.78 394.471Z" fill="#42E8E0"/>
<path d="M365.78 371.989V355.238L361.175 352.663C359.879 360.582 350.612 365.787 342.863 366.867L290.105 397.85L267.077 406.212L193.58 368.141L195.29 367.144C189.002 364.209 185.638 357.453 182.218 351.306L177.281 354.269L174.331 355.099V372.266C174.331 375.561 176.482 378.828 180.784 381.32L254.419 424.015C263.051 428.999 277.06 428.999 285.693 424.015L359.327 381.32C363.574 378.856 365.725 375.644 365.78 372.404C365.78 372.266 365.78 372.128 365.78 371.961V371.989Z" fill="url(#paint24_linear_64_4838)"/>
<path opacity="0.3" d="M342.835 366.839L290.077 397.822L270.028 405.076V427.725C275.681 427.725 281.363 426.479 285.665 423.987L359.299 381.292C363.546 378.828 365.698 375.616 365.753 372.376C365.753 372.238 365.753 372.099 365.753 371.933V355.182L361.533 352.829H361.092C359.658 360.609 350.502 365.731 342.807 366.811L342.835 366.839Z" fill="#0F054C"/>
<path d="M254.391 406.987L180.756 364.292C172.124 359.28 172.124 351.168 180.756 346.156L254.391 303.461C263.023 298.477 277.033 298.477 285.665 303.461L359.299 346.156C367.932 351.14 367.932 359.28 359.299 364.292L285.665 406.987C277.033 411.998 263.023 411.971 254.391 406.987Z" fill="url(#paint25_linear_64_4838)"/>
<path d="M359.299 364.292L285.665 406.987C277.033 411.998 263.023 411.971 254.391 406.987L180.756 364.292C176.895 362.049 174.772 359.197 174.358 356.262C173.862 359.889 175.985 363.6 180.756 366.368L254.391 409.063C263.023 414.047 277.033 414.075 285.665 409.063L359.299 366.368C364.071 363.6 366.194 359.889 365.698 356.262C365.284 359.197 363.16 362.049 359.299 364.292Z" fill="white"/>
</g>
<defs>
<linearGradient id="paint0_linear_64_4838" x1="193.36" y1="251.242" x2="345.563" y2="338.795" gradientUnits="userSpaceOnUse">
<stop stop-color="#BCBEFF"/>
<stop offset="0.23" stop-color="#AAADF7"/>
<stop offset="0.68" stop-color="#7B82E5"/>
<stop offset="1" stop-color="#5761D7"/>
</linearGradient>
<linearGradient id="paint1_linear_64_4838" x1="174.303" y1="284.523" x2="365.78" y2="284.523" gradientUnits="userSpaceOnUse">
<stop stop-color="#E9E9FD"/>
<stop offset="0.36" stop-color="#D2D2F9"/>
<stop offset="0.71" stop-color="#C4C3F6"/>
<stop offset="1" stop-color="#C0BFF6"/>
</linearGradient>
<linearGradient id="paint2_linear_64_4838" x1="193.36" y1="138.994" x2="345.563" y2="226.52" gradientUnits="userSpaceOnUse">
<stop stop-color="#BCBEFF"/>
<stop offset="0.23" stop-color="#AAADF7"/>
<stop offset="0.68" stop-color="#7B82E5"/>
<stop offset="1" stop-color="#5761D7"/>
</linearGradient>
<linearGradient id="paint3_linear_64_4838" x1="0.00680641" y1="172.275" x2="2.76466" y2="172.275" gradientUnits="userSpaceOnUse">
<stop stop-color="#E9E9FD"/>
<stop offset="0.36" stop-color="#D2D2F9"/>
<stop offset="0.71" stop-color="#C4C3F6"/>
<stop offset="1" stop-color="#C0BFF6"/>
</linearGradient>
<linearGradient id="paint4_linear_64_4838" x1="36.3553" y1="339.345" x2="188.752" y2="427.008" gradientUnits="userSpaceOnUse">
<stop stop-color="#BCBEFF"/>
<stop offset="0.23" stop-color="#AAADF7"/>
<stop offset="0.68" stop-color="#7B82E5"/>
<stop offset="1" stop-color="#5761D7"/>
</linearGradient>
<linearGradient id="paint5_linear_64_4838" x1="17.2985" y1="372.681" x2="208.997" y2="372.681" gradientUnits="userSpaceOnUse">
<stop stop-color="#E9E9FD"/>
<stop offset="0.36" stop-color="#D2D2F9"/>
<stop offset="0.71" stop-color="#C4C3F6"/>
<stop offset="1" stop-color="#C0BFF6"/>
</linearGradient>
<linearGradient id="paint6_linear_64_4838" x1="36.3553" y1="229.783" x2="188.752" y2="317.419" gradientUnits="userSpaceOnUse">
<stop stop-color="#BCBEFF"/>
<stop offset="0.23" stop-color="#AAADF7"/>
<stop offset="0.68" stop-color="#7B82E5"/>
<stop offset="1" stop-color="#5761D7"/>
</linearGradient>
<linearGradient id="paint7_linear_64_4838" x1="45.4838" y1="223.83" x2="181.383" y2="301.998" gradientUnits="userSpaceOnUse">
<stop offset="0.24" stop-color="#5761D7"/>
<stop offset="0.39" stop-color="#7A81E5"/>
<stop offset="0.55" stop-color="#979BF0"/>
<stop offset="0.7" stop-color="#ABAEF8"/>
<stop offset="0.85" stop-color="#B7BAFD"/>
<stop offset="1" stop-color="#BCBEFF"/>
</linearGradient>
<linearGradient id="paint8_linear_64_4838" x1="17.2985" y1="263.092" x2="208.997" y2="263.092" gradientUnits="userSpaceOnUse">
<stop stop-color="#E9E9FD"/>
<stop offset="0.36" stop-color="#D2D2F9"/>
<stop offset="0.71" stop-color="#C4C3F6"/>
<stop offset="1" stop-color="#C0BFF6"/>
</linearGradient>
<linearGradient id="paint9_linear_64_4838" x1="20.222" y1="263.092" x2="206.046" y2="263.092" gradientUnits="userSpaceOnUse">
<stop stop-color="#E9E9FD"/>
<stop offset="0.36" stop-color="#D2D2F9"/>
<stop offset="0.71" stop-color="#C4C3F6"/>
<stop offset="1" stop-color="#C0BFF6"/>
</linearGradient>
<radialGradient id="paint10_radial_64_4838" cx="0" cy="0" r="1" gradientUnits="userSpaceOnUse" gradientTransform="translate(34.2949 142.561) rotate(44.5136) scale(41.8185 68.6421)">
<stop stop-color="#C0BFF6"/>
<stop offset="1" stop-color="#393091"/>
</radialGradient>
<linearGradient id="paint11_linear_64_4838" x1="30.8215" y1="151.343" x2="-6.29654" y2="152.947" gradientUnits="userSpaceOnUse">
<stop stop-color="#41E6DF"/>
<stop offset="0.14" stop-color="#3FB6CA"/>
<stop offset="0.27" stop-color="#3D8CB8"/>
<stop offset="0.41" stop-color="#3B6BAA"/>
<stop offset="0.55" stop-color="#3A519F"/>
<stop offset="0.69" stop-color="#393E97"/>
<stop offset="0.84" stop-color="#393392"/>
<stop offset="1" stop-color="#393091"/>
</linearGradient>
<radialGradient id="paint12_radial_64_4838" cx="0" cy="0" r="1" gradientUnits="userSpaceOnUse" gradientTransform="translate(169.578 36.0576) rotate(11.2434) scale(135.486 135.983)">
<stop stop-color="#C0BFF6"/>
<stop offset="1" stop-color="#393091"/>
</radialGradient>
<linearGradient id="paint13_linear_64_4838" x1="44.8747" y1="131.303" x2="70.2303" y2="91.6449" gradientUnits="userSpaceOnUse">
<stop stop-color="#41E6DF"/>
<stop offset="0.14" stop-color="#3FB6CA"/>
<stop offset="0.27" stop-color="#3D8CB8"/>
<stop offset="0.41" stop-color="#3B6BAA"/>
<stop offset="0.55" stop-color="#3A519F"/>
<stop offset="0.69" stop-color="#393E97"/>
<stop offset="0.84" stop-color="#393392"/>
<stop offset="1" stop-color="#393091"/>
</linearGradient>
<radialGradient id="paint14_radial_64_4838" cx="0" cy="0" r="1" gradientUnits="userSpaceOnUse" gradientTransform="translate(152.999 142.047) scale(104.372 142.403)">
<stop stop-color="#C0BFF6"/>
<stop offset="1" stop-color="#393091"/>
</radialGradient>
<linearGradient id="paint15_linear_64_4838" x1="117.161" y1="237.344" x2="117.161" y2="94.9707" gradientUnits="userSpaceOnUse">
<stop stop-color="#41E6DF"/>
<stop offset="0.14" stop-color="#3FB6CA"/>
<stop offset="0.27" stop-color="#3D8CB8"/>
<stop offset="0.41" stop-color="#3B6BAA"/>
<stop offset="0.55" stop-color="#3A519F"/>
<stop offset="0.69" stop-color="#393E97"/>
<stop offset="0.84" stop-color="#393392"/>
<stop offset="1" stop-color="#393091"/>
</linearGradient>
<radialGradient id="paint16_radial_64_4838" cx="0" cy="0" r="1" gradientUnits="userSpaceOnUse" gradientTransform="translate(154.667 52.8565) scale(104.44 104.855)">
<stop stop-color="#C0BFF6"/>
<stop offset="1" stop-color="#393091"/>
</radialGradient>
<linearGradient id="paint17_linear_64_4838" x1="107.508" y1="123.489" x2="124.851" y2="0.628098" gradientUnits="userSpaceOnUse">
<stop stop-color="#41E6DF"/>
<stop offset="0.14" stop-color="#3FB6CA"/>
<stop offset="0.27" stop-color="#3D8CB8"/>
<stop offset="0.41" stop-color="#3B6BAA"/>
<stop offset="0.55" stop-color="#3A519F"/>
<stop offset="0.69" stop-color="#393E97"/>
<stop offset="0.84" stop-color="#393392"/>
<stop offset="1" stop-color="#393091"/>
</linearGradient>
<radialGradient id="paint18_radial_64_4838" cx="0" cy="0" r="1" gradientUnits="userSpaceOnUse" gradientTransform="translate(196.601 133.248) rotate(11.2434) scale(48.9592 49.1389)">
<stop stop-color="#C0BFF6"/>
<stop offset="1" stop-color="#393091"/>
</radialGradient>
<linearGradient id="paint19_linear_64_4838" x1="163.735" y1="162.476" x2="201.803" y2="134.913" gradientUnits="userSpaceOnUse">
<stop stop-color="#41E6DF"/>
<stop offset="0.14" stop-color="#3FB6CA"/>
<stop offset="0.27" stop-color="#3D8CB8"/>
<stop offset="0.41" stop-color="#3B6BAA"/>
<stop offset="0.55" stop-color="#3A519F"/>
<stop offset="0.69" stop-color="#393E97"/>
<stop offset="0.84" stop-color="#393392"/>
<stop offset="1" stop-color="#393091"/>
</linearGradient>
<radialGradient id="paint20_radial_64_4838" cx="0" cy="0" r="1" gradientUnits="userSpaceOnUse" gradientTransform="translate(225.462 217.438) rotate(6.82676) scale(41.7396 68.7719)">
<stop stop-color="#C0BFF6"/>
<stop offset="1" stop-color="#393091"/>
</radialGradient>
<linearGradient id="paint21_linear_64_4838" x1="186.535" y1="230.09" x2="218.887" y2="233.933" gradientUnits="userSpaceOnUse">
<stop stop-color="#41E6DF"/>
<stop offset="0.14" stop-color="#3FB6CA"/>
<stop offset="0.27" stop-color="#3D8CB8"/>
<stop offset="0.41" stop-color="#3B6BAA"/>
<stop offset="0.55" stop-color="#3A519F"/>
<stop offset="0.69" stop-color="#393E97"/>
<stop offset="0.84" stop-color="#393392"/>
<stop offset="1" stop-color="#393091"/>
</linearGradient>
<linearGradient id="paint22_linear_64_4838" x1="193.36" y1="434.204" x2="345.563" y2="521.757" gradientUnits="userSpaceOnUse">
<stop stop-color="#BCBEFF"/>
<stop offset="0.23" stop-color="#AAADF7"/>
<stop offset="0.68" stop-color="#7B82E5"/>
<stop offset="1" stop-color="#5761D7"/>
</linearGradient>
<linearGradient id="paint23_linear_64_4838" x1="0.00680641" y1="467.485" x2="2.76466" y2="467.485" gradientUnits="userSpaceOnUse">
<stop stop-color="#E9E9FD"/>
<stop offset="0.36" stop-color="#D2D2F9"/>
<stop offset="0.71" stop-color="#C4C3F6"/>
<stop offset="1" stop-color="#C0BFF6"/>
</linearGradient>
<linearGradient id="paint24_linear_64_4838" x1="193.36" y1="321.957" x2="345.563" y2="409.482" gradientUnits="userSpaceOnUse">
<stop stop-color="#BCBEFF"/>
<stop offset="0.23" stop-color="#AAADF7"/>
<stop offset="0.68" stop-color="#7B82E5"/>
<stop offset="1" stop-color="#5761D7"/>
</linearGradient>
<linearGradient id="paint25_linear_64_4838" x1="0.00680641" y1="355.238" x2="2.76466" y2="355.238" gradientUnits="userSpaceOnUse">
<stop stop-color="#E9E9FD"/>
<stop offset="0.36" stop-color="#D2D2F9"/>
<stop offset="0.71" stop-color="#C4C3F6"/>
<stop offset="1" stop-color="#C0BFF6"/>
</linearGradient>
<clipPath id="clip0_64_4838">
<rect width="365.774" height="540" fill="white" transform="translate(0.00683594)"/>
</clipPath>
</defs>
</svg>
