<svg width="46" height="46" viewBox="0 0 46 46" fill="none" xmlns="http://www.w3.org/2000/svg">
<path fill-rule="evenodd" clip-rule="evenodd" d="M10.003 11.5211V36.0961C10.0213 36.1571 10.0387 36.2185 10.0561 36.2799C10.0925 36.4081 10.1289 36.5364 10.174 36.6617C10.6076 37.861 11.4457 38.6132 12.6819 38.9241C12.7336 38.937 12.7837 38.9554 12.8338 38.9738C12.8581 38.9827 12.8824 38.9917 12.9069 39H29.6954C29.8095 38.9616 29.9253 38.9268 30.0411 38.8919L30.0412 38.8919C30.2977 38.8148 30.5542 38.7376 30.7919 38.6217C31.6243 38.2165 32.1686 37.5367 32.4879 36.6673C35.9603 36.9987 38.9395 35.979 41.3155 33.4185C43.1982 31.3896 44.0853 28.9462 43.9937 26.1799C43.7929 20.1073 38.3817 15.6797 32.6703 16.388V16.0041C32.6703 15.182 32.6705 14.36 32.6707 13.5381V13.538V13.5379C32.671 11.8942 32.6713 10.2505 32.6703 8.60652C32.6689 6.45127 31.2283 5.00569 29.0801 5.00569C27.8225 5.00524 26.5649 5.00549 25.3073 5.00574C22.5407 5.00629 19.7744 5.00684 17.0081 5.00001C16.5375 4.99859 16.1756 5.14904 15.8456 5.48258C14.9684 6.36808 14.087 7.24923 13.2056 8.13033L13.2055 8.13041L13.2055 8.13045C12.3429 8.99277 11.4803 9.85505 10.6218 10.7213C10.4608 10.8837 10.3267 11.0723 10.1924 11.2611C10.1302 11.3486 10.0679 11.4361 10.003 11.5211ZM18.3879 7.27235C18.4573 7.48965 18.5277 7.7028 18.5972 7.91353L18.5972 7.91356L18.5972 7.91358C18.7466 8.366 18.8922 8.80725 19.0171 9.25444C19.5323 11.106 18.394 13 16.5234 13.4443C15.7796 13.621 15.0473 13.5124 14.3106 13.401C13.8588 13.3326 13.406 13.2699 12.9448 13.2061L12.9447 13.2061L12.9445 13.2061L12.9438 13.206C12.7216 13.1753 12.4973 13.1442 12.2703 13.1122V13.5138V35.3587C12.2703 36.3203 12.6855 36.7333 13.6506 36.7333H28.9843C29.0159 36.7333 29.0475 36.7339 29.0792 36.7345H29.0793C29.1659 36.736 29.2527 36.7375 29.3385 36.7277C29.7479 36.6808 30.0616 36.492 30.2624 36.1032L30.2437 36.0923C30.2292 36.0839 30.2162 36.076 30.2041 36.0686C30.1719 36.0491 30.1464 36.0336 30.1191 36.023C28.6792 35.4588 27.4337 34.61 26.3614 33.4966C26.2592 33.3908 26.0527 33.3411 25.8938 33.3404C22.8644 33.3333 19.8349 33.3336 16.8055 33.3339L14.9869 33.334H14.5583V31.0596H24.737C23.9933 29.6111 23.6505 28.1102 23.5902 26.522H14.5604V24.2645H23.8549C23.8651 24.2305 23.8744 24.2009 23.8829 24.1738C23.8939 24.1387 23.9036 24.1077 23.9124 24.0765C24.8406 20.6999 26.9157 18.3388 30.1737 17.0387C30.4067 16.946 30.4057 16.8028 30.4045 16.6253L30.4044 16.5995C30.4036 15.082 30.4037 13.5645 30.4038 12.0472V12.0471V12.0471C30.4039 10.9091 30.404 9.77123 30.4037 8.63349C30.4037 7.69389 29.9828 7.27235 29.0461 7.27235H18.7765H18.3879ZM33.7533 34.4667C29.4137 34.4553 25.8661 30.8822 25.8703 26.5284C25.8746 22.1398 29.4385 18.595 33.837 18.6028C38.1823 18.6114 41.7405 22.1788 41.737 26.5241C41.7335 30.9354 38.1716 34.4787 33.7533 34.4667ZM13.6996 11.0265L16.3495 8.37446C16.3954 8.52364 16.4465 8.6793 16.4992 8.83995C16.6207 9.21045 16.7509 9.60744 16.847 10.0124C17.0222 10.7533 16.3325 11.465 15.5745 11.3501C15.1238 11.2813 14.6745 11.2005 14.2494 11.1242C14.0607 11.0903 13.8768 11.0572 13.6996 11.0265ZM14.5562 19.7207H23.5774V17.4973H14.5562V19.7207ZM28.1107 11.7903H22.4901V9.56763H28.1107V11.7903ZM37.4294 23.9217C37.1413 23.6467 36.8426 23.3615 36.5231 23.0561L36.5224 23.0554C35.3096 24.2853 34.0712 25.5414 32.7598 26.872C32.2731 26.366 31.7906 25.8651 31.3223 25.379C31.2061 25.2583 31.0907 25.1385 30.9764 25.0198C30.7126 25.2908 30.451 25.5593 30.1891 25.8281C29.9395 26.0843 29.6896 26.3408 29.4371 26.6002C29.7063 26.8692 29.9788 27.1416 30.2535 27.4162C30.7992 27.9618 31.3537 28.5161 31.9089 29.0698C32.5256 29.6851 33.1366 29.6894 33.7582 29.0776C34.8682 27.9862 35.9774 26.894 37.083 25.7976C37.344 25.5391 37.5991 25.2744 37.8565 25.0074C37.9694 24.8903 38.0827 24.7727 38.1972 24.655C37.9449 24.4139 37.6916 24.172 37.4294 23.9217Z" fill="#003B97"/>
</svg>
