<svg width="46" height="46" viewBox="0 0 46 46" fill="none" xmlns="http://www.w3.org/2000/svg">
<path d="M6.77466 24.0939H13.3473C13.3473 23.9287 13.3473 23.7909 13.3473 23.6539C13.3473 22.1431 13.3473 20.633 13.3473 19.1221C13.3489 15.8295 15.183 13.3738 18.3394 12.4367C18.3746 12.4266 18.4052 12.4007 18.4717 12.3639C17.3562 10.8531 16.964 9.18251 17.4133 7.35617C17.7358 6.04806 18.4592 4.98498 19.5332 4.16849C21.7103 2.51437 24.7344 2.63257 26.8096 4.42056C28.6368 5.99405 29.7867 9.29133 27.5596 12.3859C27.7991 12.4634 28.0316 12.5315 28.2602 12.6129C30.8968 13.5491 32.655 16.0299 32.6605 18.8262C32.6636 20.4146 32.6605 22.0037 32.6605 23.5921C32.6605 23.7455 32.6605 23.8989 32.6605 24.0915H39.2253V26.415H35.7691C35.7558 26.5512 35.7386 26.6498 35.7386 26.7492C35.737 32.114 35.7378 37.4795 35.7386 42.8442C35.7386 42.8959 35.7449 42.9483 35.748 43H10.2888V26.4361H6.77466V24.0923V24.0939ZM33.3768 40.6492V26.4557H12.6482V40.6492H33.3768ZM15.6817 23.4966C17.0806 22.3943 18.395 21.3524 19.7203 20.3238C19.9426 20.1515 20.0084 20.013 19.9293 19.7147C19.3148 17.4101 21.3744 15.2541 23.6744 15.7739C25.5023 16.1873 26.5865 17.9807 26.0847 19.7625C25.5775 21.563 23.7049 22.5212 21.9122 21.9121C21.769 21.8636 21.5412 21.8706 21.43 21.9544C20.5689 22.6057 19.7266 23.2813 18.8803 23.9514C18.8475 23.9772 18.831 24.025 18.8021 24.0704H30.305C30.3175 24.0015 30.3339 23.9522 30.3339 23.9029C30.3355 22.1587 30.3801 20.413 30.3245 18.6704C30.2517 16.4033 28.4105 14.6036 26.1654 14.5715C24.058 14.5418 21.949 14.5441 19.8417 14.5715C17.9582 14.5966 16.243 15.9344 15.8571 17.7725C15.6676 18.6759 15.713 19.6317 15.6887 20.5649C15.6637 21.5105 15.6833 22.457 15.6833 23.4973L15.6817 23.4966ZM23.009 5.33803C21.0981 5.34038 19.5692 6.87786 19.5739 8.79188C19.5786 10.6989 21.1232 12.2293 23.0348 12.2215C24.9191 12.2136 26.4519 10.6738 26.455 8.7864C26.4581 6.88099 24.9144 5.33647 23.0098 5.33882L23.009 5.33803ZM23.0223 18.0395C22.5409 18.034 22.1541 18.4176 22.1534 18.9006C22.1534 19.3836 22.5424 19.7711 23.0215 19.7648C23.481 19.7593 23.8646 19.3797 23.8756 18.9201C23.8873 18.4442 23.4998 18.0442 23.0215 18.0387L23.0223 18.0395Z" fill="#003B97"/>
</svg>
