<svg width="46" height="46" viewBox="0 0 46 46" fill="none" xmlns="http://www.w3.org/2000/svg">
<path fill-rule="evenodd" clip-rule="evenodd" d="M23 38.3338C31.5145 38.3338 38.4169 31.4314 38.4169 22.9169C38.4169 14.4024 31.5145 7.5 23 7.5C14.4855 7.5 7.5831 14.4024 7.5831 22.9169C7.5831 31.4314 14.4855 38.3338 23 38.3338ZM23 40.8338C32.8952 40.8338 40.9169 32.8121 40.9169 22.9169C40.9169 13.0217 32.8952 5 23 5C13.1048 5 5.0831 13.0217 5.0831 22.9169C5.0831 32.8121 13.1048 40.8338 23 40.8338Z" fill="#003B97"/>
<path fill-rule="evenodd" clip-rule="evenodd" d="M22.0076 12.7229C21.0918 12.889 20.0612 13.3453 19.3277 13.9096C17.9922 14.9368 17.1258 16.5553 17.0094 18.2408C16.9592 18.9669 17.0522 19.2704 17.4395 19.6456C17.895 20.0867 18.4698 20.1827 19.0244 19.9102C19.5203 19.6667 19.7529 19.2656 19.8333 18.5155C19.9098 17.8021 20.0429 17.397 20.3539 16.9315C21.2836 15.5399 22.9965 15.1037 24.5142 15.8719C24.9021 16.0682 25.4941 16.6478 25.7449 17.0767C26.7998 18.8807 25.7621 21.2483 23.7039 21.7333C23.4761 21.787 23.1589 21.8319 22.999 21.8332C22.4926 21.8374 21.9796 22.1596 21.7166 22.6389C21.6253 22.8053 21.6066 23.1101 21.5896 24.7046C21.5724 26.3219 21.5842 26.613 21.6767 26.8551C21.9039 27.4497 22.3625 27.772 22.9849 27.7746C23.6007 27.7772 24.0057 27.5225 24.2672 26.9685C24.4082 26.6696 24.4196 26.565 24.4201 25.566L24.4208 24.4864L24.6955 24.4136C24.8465 24.3735 25.2062 24.2307 25.4948 24.0962C27.2262 23.2894 28.3897 21.8652 28.8618 19.9747C29.0324 19.2918 29.0129 17.8865 28.8231 17.1816C28.2593 15.0876 26.7082 13.4912 24.647 12.8834C24.1743 12.744 23.9019 12.7075 23.1929 12.689C22.713 12.6764 22.1796 12.6917 22.0076 12.7229ZM22.5114 29.2195C21.1055 29.5751 20.5715 31.3316 21.5415 32.41C21.9677 32.8838 22.3308 33.041 22.999 33.041C23.6671 33.041 24.0302 32.8838 24.4564 32.41C24.7908 32.0381 24.9489 31.6009 24.9463 31.055C24.9448 30.7287 24.9037 30.5721 24.7311 30.2338C24.3078 29.4045 23.4072 28.993 22.5114 29.2195Z" fill="#003B97"/>
</svg>
