<svg width="46" height="46" viewBox="0 0 46 46" fill="none" xmlns="http://www.w3.org/2000/svg">
<path fill-rule="evenodd" clip-rule="evenodd" d="M20.3515 3.61628C17.6894 3.91674 14.8228 4.91767 12.5021 6.357C10.0809 7.8587 7.64662 10.3316 6.20662 12.7524C4.80582 15.1071 3.90549 17.7881 3.61401 20.4727C3.51327 21.4002 3.51327 23.6714 3.61401 24.5989C4.08307 28.9188 5.98308 32.8586 9.10103 35.9764C12.2639 39.1393 16.237 41.0316 20.6407 41.4725C21.7722 41.5858 24.3863 41.5227 25.4371 41.3567C27.951 40.9597 30.5548 39.9863 32.6736 38.6514C35.0129 37.1777 37.252 34.9245 38.7287 32.5585C40.018 30.4925 40.9741 27.8912 41.3753 25.357C41.5856 24.0292 41.5656 20.8412 41.3389 19.5333C40.7712 16.2588 39.6164 13.5586 37.718 11.0667C37.3753 10.6168 36.9451 10.0795 36.7621 9.87274L36.4294 9.49678L37.5053 9.41214C38.097 9.36559 38.6067 9.31169 38.638 9.29231C38.6858 9.26284 38.5374 7.09831 38.4844 7.05124C38.4442 7.0156 32.2265 7.56054 32.1827 7.60353C32.1404 7.64495 32.6312 13.8485 32.6818 13.9121C32.7056 13.9422 34.8913 13.7714 34.9279 13.7367C34.9518 13.714 34.8305 12.0988 34.7524 11.3995L34.7151 11.0654L35.1634 11.5479C36.407 12.8864 37.6463 15.008 38.3513 17.0055C39.4158 20.0215 39.558 23.679 38.7324 26.8108C37.2046 32.6062 32.6121 37.1987 26.8167 38.7265C24.1345 39.4335 20.9488 39.4335 18.2667 38.7265C12.4442 37.1916 7.78434 32.5008 6.32348 26.704C6.04945 25.6162 5.90958 24.7005 5.84425 23.5655C5.5919 19.1822 6.92766 15.1101 9.70098 11.8078C11.9084 9.17946 14.8986 7.25065 18.1078 6.38506C19.1508 6.10376 20.3375 5.90591 21.2424 5.86255C21.6916 5.84102 22.1677 5.80694 22.3004 5.78689L22.5417 5.75029V4.64008V3.52979L21.7436 3.53951C21.3047 3.54486 20.6782 3.57938 20.3515 3.61628ZM20.8087 10.843C15.4661 11.7127 11.4751 15.8273 10.8083 21.1531C10.6839 22.147 10.756 23.9074 10.9609 24.8744C11.8441 29.0441 14.8276 32.4207 18.7924 33.7382C20.1714 34.1963 20.862 34.2983 22.5788 34.2972C24.022 34.2963 24.2041 34.2808 25.0288 34.0887C29.7268 32.994 33.1155 29.5512 34.1346 24.8373C34.279 24.1695 34.3031 23.8396 34.3031 22.5358C34.3031 21.2305 34.2791 20.9028 34.1342 20.2343C33.1008 15.4638 29.6014 11.9559 24.8684 10.946C23.9062 10.7407 21.7703 10.6865 20.8087 10.843ZM21.428 14.1093V15.1116H22.5417H23.6553V14.1093V13.107H23.8361C23.9355 13.107 24.2445 13.1556 24.5228 13.2148C27.5447 13.8588 30.0675 15.9391 31.3017 18.8047C31.5917 19.4783 31.9704 20.8405 31.9704 21.2104V21.4221H30.9682H29.9659V22.5358V23.6494H30.9682H31.9704V23.8611C31.9704 24.2333 31.591 25.5949 31.2973 26.2768C30.3209 28.5439 28.5498 30.315 26.2827 31.2914C25.6008 31.5851 24.2392 31.9645 23.867 31.9645H23.6553V30.9623V29.96H22.5417H21.428V30.9623V31.9645H21.2163C20.8464 31.9645 19.4842 31.5858 18.8106 31.2958C15.945 30.0616 13.8647 27.5388 13.2207 24.5169C13.1615 24.2386 13.1129 23.9296 13.1129 23.8302V23.6494H14.1152H15.1175V22.5358V21.4221H14.1152H13.1129V21.2414C13.1129 21.142 13.1615 20.833 13.2207 20.5546C13.8615 17.5476 15.9968 14.9562 18.812 13.7687C19.4681 13.4919 20.8285 13.1147 21.1868 13.1101L21.428 13.107V14.1093ZM21.428 19.2134L21.4279 21.979L19.9431 23.2284C19.1265 23.9155 18.4584 24.5065 18.4584 24.5416C18.4584 24.634 19.7989 26.2108 19.8775 26.2108C19.9137 26.2108 20.7786 25.5104 21.7993 24.6546L23.6553 23.0984V19.7731V16.4479H22.5417H21.428L21.428 19.2134Z" fill="#003B97"/>
</svg>
