<svg width="85" height="32" viewBox="0 0 85 32" fill="none" xmlns="http://www.w3.org/2000/svg">
<path fill-rule="evenodd" clip-rule="evenodd" d="M2.65436 7.69805H0V0H17.3136V7.69805H14.6291V24.3018H17.3136V31.9999H0V24.3018H2.65436V7.69805ZM34.1746 12.3169V7.72827H38.7896C40.0263 7.72827 41.0518 8.7849 41.0518 10.0226C41.0518 11.2604 39.9961 12.3169 38.7594 12.3169H34.1746ZM38.9706 24.3923H34.1746V19.5924H38.9706C40.3279 19.5924 41.3535 20.7697 41.3535 21.9773C41.3535 23.1848 40.3882 24.3622 38.9404 24.3622L38.9706 24.3923ZM47.567 15.366C48.1703 15.1848 51.8804 13.3735 51.8804 7.99996C51.8804 3.86412 48.6831 0 43.1331 0H20.4806V7.69805H23.1651V24.3018H20.4806V31.9999H44.7317C48.8339 31.9999 52.9662 28.1659 52.9662 23.0037C52.9662 19.5018 50.8246 16.7547 47.567 15.4868V15.366ZM67.6556 12.3169C66.3285 12.3169 65.3633 11.1396 65.3633 10.0226C65.3633 8.75472 66.4189 7.72828 67.6556 7.72828H72.2404V9.96221H82.1037V0.0302326H65.6347C59.4211 0.0302326 54.5649 3.71317 54.5649 9.96221C54.5649 15.3962 58.9687 19.5622 64.4282 19.5622H70.9434C72.3309 19.5622 73.3564 20.7396 73.3564 21.9773C73.3564 23.215 72.3309 24.3622 70.9434 24.3622H66.1475V22.0376H56.1937V31.9999H74.2915C79.7812 31.9999 84.2453 27.532 84.2453 22.0376C84.2453 16.5433 79.751 12.2868 74.2613 12.2868H67.6556V12.3169Z" fill="white"/>
</svg>
