<svg xmlns="http://www.w3.org/2000/svg" width="174" height="48" viewBox="0 0 174 48" fill="none">
<mask id="mask0_203_1729" style="mask-type:luminance" maskUnits="userSpaceOnUse" x="0" y="0" width="49" height="48">
<path d="M48.037 0.01297H0V48H48.037V0.01297Z" fill="white"/>
</mask>
<g mask="url(#mask0_203_1729)">
<path d="M47.1957 47.2745H0.815508V0.868005H47.1957V47.2745ZM48.037 0.0129395H-0.0388336V48.1166H48.037V0.0129395Z" fill="white"/>
</g>
<path d="M6.22638 20.4956H7.3655V27.6211H6.22638V30.9248H13.6565V27.6211H12.5045V20.4956H13.6565V17.192H6.22638V20.4956Z" fill="white"/>
<path d="M20.8925 22.4778V20.5085H22.873C23.4037 20.5085 23.8438 20.962 23.8438 21.4932C23.8438 22.0244 23.3908 22.4778 22.86 22.4778H20.8925ZM22.9507 27.6599H20.8925V25.6H22.9507C23.5332 25.6 23.9733 26.1053 23.9733 26.6235C23.9733 27.1417 23.559 27.647 22.9377 27.647M26.6398 23.7863C26.8987 23.7085 28.4909 22.9312 28.4909 20.6251C28.4909 18.8502 27.1188 17.192 24.737 17.192H15.0157V20.4956H16.1677V27.6211H15.0157V30.9248H25.423C27.1835 30.9248 28.9569 29.2794 28.9569 27.064C28.9569 25.5612 28.0378 24.3822 26.6398 23.8381V23.7863Z" fill="white"/>
<path d="M35.2609 22.4778C34.6913 22.4778 34.2771 21.9726 34.2771 21.4932C34.2771 20.9491 34.7301 20.5086 35.2609 20.5086H37.2284V21.4673H41.4613V17.205H34.3936C31.727 17.205 29.6429 18.7855 29.6429 21.4673C29.6429 23.7993 31.5328 25.5871 33.8758 25.5871H36.6718C37.2672 25.5871 37.7074 26.0924 37.7074 26.6236C37.7074 27.1547 37.2672 27.6471 36.6718 27.6471H34.6136V26.6495H30.3419V30.9248H38.1086C40.4645 30.9248 42.3803 29.0073 42.3803 26.6495C42.3803 24.2916 40.4516 22.4649 38.0957 22.4649H35.2609V22.4778Z" fill="white"/>
<path d="M174 6.10352e-05H172.395V47.9871H174V6.10352e-05Z" fill="white"/>
<path d="M64.6578 27.9709V18.915H61.7195V17.7231H69.2014V18.915H66.25V27.9709H64.6578Z" fill="white"/>
<path d="M71.156 22.3741V27.9709H69.6674V20.3142H70.5994C70.9618 20.3142 71.1301 20.4696 71.156 21.3636C71.6738 20.7806 72.3987 20.2365 73.3566 20.2365C73.5378 20.2365 73.6802 20.2623 73.7708 20.3012V21.532C73.7708 21.532 73.499 21.519 73.4342 21.519C72.3987 21.519 71.6479 21.9595 71.169 22.3871" fill="white"/>
<path d="M79.078 26.1572V24.5248C78.6508 24.4341 78.1848 24.3822 77.6541 24.3822C76.6315 24.3822 75.8936 24.7579 75.8936 25.6907C75.8936 26.6235 76.4891 27.0381 77.3175 27.0381C78.146 27.0381 78.6378 26.6624 79.078 26.1572ZM79.1168 27.1288C78.5473 27.7507 77.8612 28.0616 76.8386 28.0616C75.4535 28.0616 74.4438 27.2713 74.4438 25.7814C74.4438 24.2138 75.6865 23.4494 77.4081 23.4494C78.0683 23.4494 78.5472 23.5272 79.078 23.6567V22.6462C79.078 21.7393 78.5473 21.3377 77.5376 21.3377C76.6315 21.3377 75.9325 21.6098 75.4406 21.9725H74.9746V20.8583C75.6477 20.5215 76.502 20.1976 77.7317 20.1976C79.544 20.1976 80.5795 20.8584 80.5795 22.5426V27.9709H79.997C79.4145 27.9709 79.2074 27.8154 79.1168 27.1158" fill="white"/>
<path d="M82.5083 27.9709V20.3142H83.3367C83.9192 20.3142 83.9969 20.4827 83.9969 21.4543V27.9709H82.5083ZM82.3918 18.6171C82.3918 18.1377 82.806 17.7361 83.272 17.7361C83.738 17.7361 84.1522 18.1377 84.1522 18.6171C84.1522 19.0964 83.738 19.4721 83.272 19.4721C82.806 19.4721 82.3918 19.0964 82.3918 18.6171Z" fill="white"/>
<path d="M87.492 21.2729C88.2427 20.6899 89.2913 20.1847 90.4174 20.1847C91.4918 20.1847 92.372 20.6252 92.372 22.2964V27.9709H90.8834V22.6592C90.8834 21.7134 90.4563 21.4413 89.7314 21.4413C88.9029 21.4413 88.1262 21.843 87.492 22.2057V27.9709H86.0034V20.3142H86.9354C87.2978 20.3142 87.4661 20.4697 87.492 21.2859" fill="white"/>
<path d="M94.3007 27.9709V20.3142H95.1291C95.7116 20.3142 95.7893 20.4827 95.7893 21.4543V27.9709H94.3007ZM94.1842 18.6171C94.1842 18.1377 94.5984 17.7361 95.0644 17.7361C95.5304 17.7361 95.9447 18.1377 95.9447 18.6171C95.9447 19.0964 95.5304 19.4721 95.0644 19.4721C94.5984 19.4721 94.1842 19.0964 94.1842 18.6171Z" fill="white"/>
<path d="M99.2973 21.2729C100.048 20.6899 101.097 20.1847 102.223 20.1847C103.297 20.1847 104.177 20.6252 104.177 22.2964V27.9709H102.689V22.6592C102.689 21.7134 102.262 21.4413 101.537 21.4413C100.708 21.4413 99.9316 21.843 99.2973 22.2057V27.9709H97.8087V20.3142H98.7407C99.1032 20.3142 99.2714 20.4697 99.2973 21.2859" fill="white"/>
<path d="M110.986 25.7295V22.0632C110.52 21.6227 110.002 21.3895 109.226 21.3895C108.216 21.3895 107.142 21.9206 107.142 24.0324C107.142 26.1441 107.918 26.6882 109.019 26.6882C109.808 26.6882 110.468 26.2607 110.986 25.7295ZM112.475 27.7117C112.475 29.5125 111.09 30.4324 108.954 30.4324C107.633 30.4324 106.663 30.1474 106.015 29.7846V28.6575H106.494C106.986 29.0332 107.776 29.3182 108.747 29.3182C110.132 29.3182 110.986 28.8389 110.986 27.6081V26.7919C110.442 27.3619 109.64 27.7895 108.63 27.7895C107.077 27.7895 105.64 26.766 105.64 24.1619C105.64 21.2858 107.245 20.2105 108.863 20.2105C109.873 20.2105 110.572 20.5474 111.09 21.0397C111.18 20.6251 111.387 20.3271 111.789 20.3271H112.475V27.7247V27.7117Z" fill="white"/>
<path d="M117.251 22.8405C117.251 19.5368 119.271 17.6324 121.937 17.6324C123.4 17.6324 124.138 17.9563 124.889 18.4486V19.6923H124.28C123.801 19.2259 123.128 18.8372 121.989 18.8372C120.125 18.8372 118.882 20.1976 118.882 22.7757C118.882 25.4834 119.983 26.8437 121.873 26.8437C123.18 26.8437 123.918 26.3255 124.5 25.7295H125.018V26.9474C124.319 27.5692 123.296 28.0486 121.808 28.0486C119.09 28.0486 117.251 26.1571 117.251 22.8275" fill="white"/>
<path d="M127.659 23.4494H131.322C131.296 21.7911 130.649 21.2211 129.6 21.2211C128.604 21.2211 127.827 21.817 127.672 23.4494M127.646 24.4341C127.723 26.2478 128.539 26.9344 129.976 26.9344C130.96 26.9344 131.633 26.6106 132.099 26.2349H132.578V27.2713C132.021 27.647 131.193 28.0616 129.756 28.0616C127.413 28.0616 126.105 26.5717 126.105 24.162C126.105 21.7523 127.607 20.1976 129.6 20.1976C131.594 20.1976 132.811 21.3895 132.811 23.9029C132.811 24.1102 132.798 24.3693 132.798 24.4341H127.646Z" fill="white"/>
<path d="M135.762 21.2729C136.513 20.6899 137.561 20.1847 138.688 20.1847C139.762 20.1847 140.642 20.6252 140.642 22.2964V27.9709H139.154V22.6592C139.154 21.7134 138.726 21.4413 138.001 21.4413C137.173 21.4413 136.396 21.843 135.762 22.2057V27.9709H134.273V20.3142H135.205C135.568 20.3142 135.736 20.4697 135.762 21.2859" fill="white"/>
<path d="M141.872 20.3142H142.791V18.2413H144.279V20.3142H145.975V21.3636H144.279V25.898C144.279 26.7013 144.616 26.9344 145.38 26.9344H146.066V27.9061C145.781 27.9838 145.367 28.0486 144.849 28.0486C143.542 28.0486 142.791 27.5045 142.791 26.0664V21.3506H141.872V20.3012V20.3142Z" fill="white"/>
<path d="M148.422 23.4494H152.085C152.059 21.7911 151.412 21.2211 150.363 21.2211C149.367 21.2211 148.59 21.817 148.435 23.4494M148.409 24.4341C148.486 26.2478 149.302 26.9344 150.739 26.9344C151.723 26.9344 152.396 26.6106 152.862 26.2349H153.341V27.2713C152.784 27.647 151.956 28.0616 150.519 28.0616C148.176 28.0616 146.868 26.5717 146.868 24.162C146.868 21.7523 148.37 20.1976 150.363 20.1976C152.357 20.1976 153.574 21.3895 153.574 23.9029C153.574 24.1102 153.561 24.3693 153.561 24.4341H148.409Z" fill="white"/>
<path d="M156.538 22.3741V27.9709H155.049V20.3142H155.981C156.344 20.3142 156.512 20.4696 156.538 21.3636C157.043 20.7806 157.781 20.2365 158.738 20.2365C158.92 20.2365 159.062 20.2623 159.153 20.3012V21.532C159.153 21.532 158.868 21.519 158.816 21.519C157.781 21.519 157.03 21.9595 156.551 22.3871" fill="white"/>
</svg>