<svg width="114" height="32" viewBox="0 0 114 32" fill="none" xmlns="http://www.w3.org/2000/svg">
<path fill-rule="evenodd" clip-rule="evenodd" d="M2.34315 2.34316C3.84344 0.842851 5.87827 0 8 0H32V24C32 26.1217 31.1571 28.1566 29.6569 29.6568C28.1566 31.1571 26.1217 32 24 32H8C5.87827 32 3.84344 31.1571 2.34315 29.6568C0.842851 28.1566 0 26.1217 0 24V8C0 5.87826 0.842851 3.84342 2.34315 2.34316ZM22.6028 11.9967H26.4435L22.0959 16.7734L26.4371 23.9805H22.9862L19.9903 19.0609L18.9375 20.2047V23.9415H15.974V22.6417C14.7831 23.6444 13.2672 24.1782 11.7108 24.143C9.54671 24.143 7.88952 23.5191 6.78473 22.2778C5.99759 21.3722 5.53956 20.2271 5.48497 19.0284H8.64338C8.64338 19.0284 8.74086 21.212 11.6978 21.212C12.8546 21.212 14.5833 20.7896 14.6288 19.3144C14.6743 17.8391 13.0821 17.5337 11.4249 17.3192C9.32576 17.0463 6.46629 16.5524 5.77742 13.472C5.66312 12.8177 5.69102 12.1464 5.85923 11.5039C6.02744 10.8613 6.332 10.2625 6.75223 9.74817C7.27152 9.11936 7.92998 8.61997 8.67553 8.28948C9.42107 7.95903 10.2333 7.80651 11.0479 7.84404C11.8966 7.79469 12.7461 7.9236 13.5419 8.22248C14.3377 8.52132 15.0622 8.98346 15.6686 9.5792C15.7812 9.7005 15.8852 9.82397 15.9805 9.94963V8H18.944V16L22.6028 11.9967ZM11.1064 10.619C9.6247 10.619 8.48741 11.6328 8.74737 12.7766C9.01746 13.9636 10.5197 14.175 12.1733 14.4076C13.5435 14.6004 15.0175 14.8079 15.9805 15.5971V12.7766H14.2713C13.7644 10.9179 12.4062 10.619 11.1064 10.619ZM45.3745 15.1617C45.2793 15.0047 45.1729 14.8549 45.0561 14.7133C44.9153 14.5626 44.7533 14.4335 44.5752 14.3298C44.3719 14.2082 44.1534 14.1142 43.9253 14.0504C43.6216 13.9742 43.309 13.9392 42.996 13.9464C42.8194 13.9497 42.6434 13.9671 42.4695 13.9984C42.2469 14.0502 42.0294 14.122 41.8197 14.2128C41.5874 14.3383 41.3695 14.4887 41.1698 14.6613C40.9445 14.8682 40.7595 15.1149 40.6239 15.3891C40.4297 15.7386 40.2894 16.1155 40.208 16.5069C40.1015 17.0132 40.0514 17.5298 40.0585 18.0471C40.0504 18.6297 40.1181 19.2108 40.26 19.7758C40.3714 20.2409 40.5675 20.6814 40.8384 21.0755C41.0768 21.4135 41.3964 21.6861 41.7677 21.8684C42.1407 22.0625 42.556 22.1608 42.9764 22.1544C43.4215 22.171 43.8649 22.0912 44.2762 21.9204C44.5805 21.7774 44.8525 21.574 45.0756 21.3225C45.2573 21.1048 45.3982 20.856 45.4915 20.5881C45.589 20.3412 45.6735 20.1072 45.7254 19.9383H48.195C48.0969 20.6218 47.8767 21.2822 47.5451 21.8879C47.2538 22.4112 46.8656 22.8743 46.4013 23.2527C45.9364 23.6135 45.4071 23.8825 44.8416 24.0455C43.4765 24.455 42.013 24.3909 40.6889 23.8635C40.0347 23.5812 39.4543 23.152 38.9927 22.6093C38.5109 22.0234 38.1508 21.3473 37.9334 20.6206C37.6762 19.7786 37.5534 18.9014 37.5695 18.0211C37.5598 17.352 37.6318 16.6842 37.7839 16.0325C37.8993 15.4857 38.0873 14.9568 38.3428 14.4598C38.5847 14.0214 38.8865 13.619 39.2396 13.264C39.5658 12.9338 39.9406 12.6555 40.3509 12.4387C40.7522 12.2225 41.1775 12.0546 41.6182 11.9383C42.0578 11.8404 42.5066 11.7903 42.9569 11.7888C43.5395 11.7794 44.1208 11.8472 44.6856 11.9903C45.1405 12.1156 45.5774 12.2991 45.9854 12.5361C46.3453 12.7463 46.6717 13.0091 46.9537 13.316C47.1991 13.593 47.4167 13.8934 47.6036 14.2128C47.7535 14.5122 47.8796 14.8229 47.9805 15.1422C48.0606 15.4242 48.1107 15.7139 48.13 16.0065H45.6864L45.5695 15.5971C45.518 15.4463 45.4527 15.3005 45.3745 15.1617ZM57.8392 15.1746H54.8107L51.5029 18.528V15.1746H49.2153V24.0065H51.4964V21.2185L52.4257 20.2697L55.0252 24.0065H58.0081L54.2128 18.8465L57.8392 15.1746ZM57.9041 17.7157C58.09 17.1654 58.3964 16.6636 58.801 16.247C59.2013 15.8284 59.6866 15.5005 60.2242 15.2851C60.8207 15.0444 61.4592 14.9251 62.1024 14.9342C62.7562 14.9234 63.4057 15.0427 64.013 15.2851C64.5476 15.499 65.029 15.8273 65.4232 16.247C65.8128 16.6849 66.117 17.1919 66.3201 17.7417C66.7185 18.9598 66.7185 20.2733 66.3201 21.4915C66.1185 22.042 65.8142 22.5493 65.4232 22.9862C65.0238 23.3997 64.5438 23.727 64.013 23.948C63.4057 24.1905 62.7562 24.3098 62.1024 24.299C61.4592 24.3081 60.8207 24.1888 60.2242 23.948C59.6904 23.7256 59.2065 23.3985 58.801 22.9862C58.3872 22.5489 58.0802 22.0217 57.9041 21.446C57.4797 20.2321 57.4797 18.9101 57.9041 17.6962V17.7157ZM60.0943 20.5687C60.1454 20.8823 60.2628 21.1813 60.4387 21.446C60.5984 21.7129 60.8216 21.9362 61.0886 22.0959C61.3946 22.2568 61.7373 22.3352 62.0829 22.3233C62.4455 22.3398 62.8061 22.2614 63.1292 22.0959C63.3908 21.9433 63.6133 21.732 63.7791 21.4785C63.9493 21.2157 64.0664 20.922 64.1235 20.6141C64.2621 19.9475 64.2621 19.2596 64.1235 18.593C64.0653 18.2794 63.9485 17.9795 63.7791 17.7092C63.6008 17.4332 63.3501 17.2115 63.0545 17.0682C62.7588 16.925 62.4294 16.8657 62.1024 16.8968C61.7568 16.8849 61.4141 16.9633 61.1081 17.1243C60.8427 17.286 60.6199 17.5088 60.4582 17.7742C60.2768 18.0379 60.1528 18.3368 60.0943 18.6515C60.0229 18.9805 59.9838 19.3157 59.9773 19.6523C59.9868 19.9608 60.026 20.2676 60.0943 20.5687ZM70.9017 18.6775L70.9342 17.0333H73.6897V24.0065H75.9578V15.1162H68.8546L68.7896 18.4566C68.7701 19.2364 68.7376 19.8668 68.6921 20.3607C68.6519 20.7551 68.5736 21.1447 68.4582 21.524C68.3998 21.743 68.2777 21.9399 68.1072 22.0894C67.9805 22.2015 67.8149 22.2598 67.6458 22.2518C67.5074 22.2636 67.3683 22.2636 67.2299 22.2518L66.931 22.1544V24.104C67.0855 24.1679 67.2468 24.2137 67.4119 24.2405C67.5808 24.2729 67.7953 24.2729 68.0617 24.2729C68.5393 24.2932 69.012 24.171 69.42 23.922C69.7903 23.6498 70.0818 23.2843 70.2648 22.8627C70.4904 22.3044 70.6411 21.7188 70.7133 21.121C70.7977 20.4192 70.8627 19.6068 70.9017 18.6775ZM83.1844 15.1746H86.2388L82.593 18.8465L86.3948 24.0065H83.4119L80.8124 20.2697L79.883 21.2185V24.0065H77.5955V15.1746H79.883V18.528L83.1844 15.1746ZM87.1812 16.221C86.7782 16.6489 86.4723 17.1587 86.2843 17.7157V17.7417C85.8684 18.957 85.8684 20.2761 86.2843 21.4915C86.4706 22.0492 86.7767 22.5594 87.1812 22.9862C87.5902 23.3972 88.076 23.724 88.6109 23.948C89.2072 24.1892 89.8459 24.3086 90.4891 24.299C91.1408 24.3098 91.7881 24.1905 92.3932 23.948C92.9258 23.7304 93.4064 23.4026 93.8034 22.9862C94.1988 22.5525 94.5037 22.0444 94.7003 21.4915C95.0987 20.2733 95.0987 18.9599 94.7003 17.7417C94.5023 17.1894 94.1975 16.6815 93.8034 16.247C93.4143 15.815 92.9321 15.4772 92.3932 15.2591C91.7881 15.0167 91.1408 14.8974 90.4891 14.9082C89.8459 14.8986 89.2072 15.0179 88.6109 15.2591C88.0721 15.4759 87.585 15.8036 87.1812 16.221ZM88.8449 21.4525C88.6612 21.1876 88.5371 20.8861 88.4809 20.5687C88.4077 20.2684 88.3663 19.9613 88.3575 19.6523C88.3607 19.3155 88.3999 18.98 88.4744 18.6515C88.533 18.3368 88.657 18.0379 88.8384 17.7742C89.0001 17.5088 89.2229 17.286 89.4882 17.1243C89.7966 16.9634 90.1414 16.885 90.4891 16.8968C90.8178 16.8651 91.1489 16.9248 91.4459 17.0693C91.7429 17.2138 91.9943 17.4375 92.1722 17.7157C92.3416 17.986 92.4585 18.2858 92.5167 18.5995C92.6552 19.2661 92.6552 19.954 92.5167 20.6206C92.4595 20.9285 92.3425 21.2222 92.1722 21.485C92.0065 21.7384 91.784 21.9498 91.5224 22.1024C91.2051 22.2646 90.8516 22.3429 90.4956 22.3298C90.1479 22.3417 89.8031 22.2633 89.4947 22.1024C89.2273 21.9433 89.0039 21.7199 88.8449 21.4525ZM101.816 15.2786C102.164 15.3486 102.5 15.4713 102.811 15.6426C103.096 15.8183 103.331 16.0645 103.493 16.3574C103.673 16.7109 103.758 17.105 103.74 17.5012C103.749 17.7206 103.722 17.94 103.662 18.1511C103.617 18.3315 103.538 18.5015 103.428 18.6515C103.341 18.7882 103.228 18.9072 103.097 19.0024C102.972 19.0992 102.837 19.182 102.694 19.2494C103.108 19.3729 103.467 19.6372 103.708 19.9968C103.947 20.3607 104.07 20.7894 104.059 21.225C104.066 21.6115 103.997 21.9956 103.857 22.3558C103.719 22.6834 103.511 22.9764 103.246 23.2136C102.97 23.4695 102.642 23.6624 102.284 23.7791C101.879 23.9184 101.452 23.9866 101.024 23.9805H96.0715V15.1746H100.621C101.022 15.1711 101.422 15.2059 101.816 15.2786ZM100.79 18.58C100.931 18.543 101.066 18.4814 101.186 18.3981C101.287 18.3292 101.363 18.2286 101.4 18.1121C101.45 17.9792 101.472 17.8378 101.466 17.6962C101.47 17.5716 101.448 17.4475 101.4 17.3322C101.354 17.2224 101.28 17.1262 101.186 17.0528C101.071 16.9681 100.941 16.9063 100.803 16.8709C100.604 16.8164 100.398 16.7923 100.192 16.7993H98.3656V18.645H100.127C100.349 18.6434 100.571 18.6216 100.79 18.58ZM100.939 22.2778C101.111 22.218 101.268 22.1228 101.4 21.9984C101.505 21.9052 101.58 21.7831 101.615 21.6474C101.65 21.5294 101.668 21.4068 101.667 21.2835C101.678 21.0976 101.649 20.9114 101.582 20.7376C101.537 20.5985 101.442 20.4807 101.316 20.4062C101.177 20.3002 101.01 20.237 100.835 20.2242C100.601 20.1875 100.364 20.1701 100.127 20.1722H98.3656V22.3818H100.127C100.401 22.3913 100.676 22.3562 100.939 22.2778ZM105.878 16.2286C105.476 16.6531 105.172 17.1608 104.988 17.7157H105.02C104.596 18.9296 104.596 20.2516 105.02 21.4655C105.207 22.0232 105.513 22.5334 105.917 22.9602C106.325 23.3727 106.811 23.6997 107.347 23.922C107.941 24.1633 108.577 24.2826 109.219 24.2729C109.872 24.2838 110.522 24.1645 111.129 23.922C111.647 23.7065 112.116 23.3881 112.507 22.9862C112.902 22.5525 113.207 22.0444 113.404 21.4915C113.802 20.2733 113.802 18.9598 113.404 17.7417C113.206 17.1894 112.901 16.6815 112.507 16.247C112.116 15.8167 111.635 15.4792 111.097 15.2591C110.489 15.0167 109.84 14.8974 109.186 14.9082C108.545 14.8986 107.908 15.0179 107.314 15.2591C106.77 15.4732 106.28 15.8041 105.878 16.2286ZM107.542 21.4525C107.358 21.1876 107.234 20.8861 107.178 20.5687C107.108 20.2679 107.066 19.961 107.054 19.6523C107.061 19.3157 107.1 18.9805 107.171 18.6515C107.23 18.3368 107.354 18.0379 107.535 17.7742C107.697 17.5088 107.92 17.286 108.185 17.1243C108.492 16.9641 108.834 16.8858 109.18 16.8968C109.536 16.8763 109.892 16.9479 110.213 17.1048C110.472 17.2575 110.694 17.4662 110.863 17.7157C111.037 17.9842 111.156 18.2846 111.214 18.5995C111.344 19.267 111.344 19.9532 111.214 20.6206C111.157 20.9298 111.038 21.224 110.863 21.485C110.698 21.7394 110.475 21.951 110.213 22.1024C109.896 22.2652 109.542 22.3435 109.186 22.3298C108.841 22.3408 108.498 22.2625 108.192 22.1024C107.925 21.9427 107.702 21.7194 107.542 21.4525Z" fill="white"/>
</svg>
