<svg width="194" height="56" viewBox="0 0 194 56" fill="none" xmlns="http://www.w3.org/2000/svg">
<g clip-path="url(#clip0_1_5)">
<path d="M0.484161 41.5323L5.30468 13.3663H12.2513L17.0719 41.5323H12.2934L11.4724 36.4255H5.64149L4.82053 41.5323H0.484161ZM6.25197 32.5954H10.8199L8.54643 18.3553L6.25197 32.5954ZM18.2085 41.5323L23.5133 27.0565L18.5453 13.3663H23.4711L27.0497 23.7567L30.7125 13.3663H35.112L30.1441 27.0565L35.4488 41.5323H30.4388L26.5655 30.3955L22.6502 41.5323H18.2085ZM37.8064 41.5323V13.3663H42.5428V41.5323H37.8064ZM45.6161 34.7756V20.123C45.6161 17.8708 46.2406 16.1292 47.4896 14.8984C48.7386 13.6675 50.5207 13.0521 52.8362 13.0521C55.1521 13.0521 56.9272 13.6675 58.1619 14.8984C59.4111 16.1292 60.0357 17.8708 60.0357 20.123V34.7756C60.0357 37.0278 59.4111 38.7694 58.1619 40.0002C56.9272 41.2311 55.1521 41.8465 52.8362 41.8465C50.5207 41.8465 48.7386 41.2311 47.4896 40.0002C46.2406 38.7694 45.6161 37.0278 45.6161 34.7756ZM50.3733 35.0506C50.3733 36.9099 51.1944 37.8397 52.8362 37.8397C54.4644 37.8397 55.278 36.9099 55.278 35.0506V19.848C55.278 18.0018 54.4644 17.0786 52.8362 17.0786C51.1944 17.0786 50.3733 18.0018 50.3733 19.848V35.0506ZM63.067 41.5323V13.3663H69.6555L73.15 33.3614L76.3919 13.3663H82.9804V41.5323H78.4968V21.3408L75.2128 41.5323H70.7293L67.1927 21.6158V41.5323H63.067Z" fill="white"/>
<path d="M91.8217 41.5323V37.5058C92.1726 37.5319 92.72 37.545 93.4634 37.545C94.3196 37.545 94.9863 37.3486 95.4635 36.9558C95.9403 36.563 96.1789 35.8624 96.1789 34.8542V13.3663H100.937V34.5399C100.937 39.2538 98.6628 41.6108 94.1161 41.6108C93.1055 41.6108 92.341 41.5847 91.8217 41.5323ZM104.157 41.5323V13.3663H111.651C113.995 13.3663 115.756 13.9621 116.935 15.1537C118.127 16.3453 118.724 18.0737 118.724 20.3391V34.5792C118.724 36.8445 118.127 38.573 116.935 39.7645C115.756 40.943 113.995 41.5323 111.651 41.5323H104.157ZM108.894 37.5058H111.567C112.353 37.5058 112.949 37.2963 113.356 36.8773C113.777 36.4451 113.988 35.7446 113.988 34.7756V20.123C113.988 19.154 113.777 18.4601 113.356 18.041C112.949 17.6089 112.353 17.3929 111.567 17.3929H108.894V37.5058ZM121.755 41.5323V13.3663H126.492V25.6423L132.702 13.3663H137.438L130.849 25.9173L137.438 41.5323H132.575L127.965 30.317L126.492 32.89V41.5323H121.755ZM146.3 41.5323V13.3663H153.289C155.632 13.3663 157.394 13.9621 158.572 15.1537C159.765 16.3453 160.361 18.0737 160.361 20.3391V23.9924C160.361 26.2577 159.765 27.9862 158.572 29.1777C157.394 30.3562 155.632 30.9455 153.289 30.9455H151.036V41.5323H146.3ZM151.036 26.9386H153.289C154.075 26.9386 154.657 26.7357 155.036 26.3297C155.415 25.9238 155.604 25.2364 155.604 24.2674V20.0444C155.604 19.0755 155.415 18.3946 155.036 18.0018C154.657 17.5958 154.075 17.3929 153.289 17.3929H151.036V26.9386ZM162.551 41.5323V13.3663H169.708C172.136 13.3663 173.911 13.8967 175.034 14.9573C176.171 16.0179 176.739 17.6482 176.739 19.848V22.0675C176.739 24.9614 175.7 26.8666 173.623 27.7832C174.76 28.2284 175.567 28.9486 176.044 29.9438C176.535 30.9389 176.781 32.2156 176.781 33.7739V38.1147C176.781 39.6729 176.949 40.8121 177.286 41.5323H172.465C172.353 41.2049 172.276 40.9626 172.234 40.8055C172.192 40.6353 172.143 40.321 172.087 39.8628C172.044 39.3914 172.023 38.7956 172.023 38.0754V33.656C172.023 32.3597 171.778 31.4365 171.286 30.8866C170.796 30.3366 170.01 30.0616 168.929 30.0616H167.287V41.5323H162.551ZM167.287 26.0548H169.139C170.08 26.0548 170.789 25.8321 171.265 25.3869C171.743 24.9286 171.981 24.1561 171.981 23.0692V20.2998C171.981 19.2915 171.792 18.5582 171.413 18.0999C171.034 17.6286 170.424 17.3929 169.582 17.3929H167.287V26.0548ZM179.496 34.7756V20.123C179.496 17.8708 180.121 16.1292 181.37 14.8984C182.619 13.6675 184.401 13.0521 186.717 13.0521C189.032 13.0521 190.807 13.6675 192.042 14.8984C193.291 16.1292 193.916 17.8708 193.916 20.123V34.7756C193.916 37.0278 193.291 38.7694 192.042 40.0002C190.807 41.2311 189.032 41.8465 186.717 41.8465C184.401 41.8465 182.619 41.2311 181.37 40.0002C180.121 38.7694 179.496 37.0278 179.496 34.7756ZM184.254 35.0506C184.254 36.9099 185.075 37.8397 186.717 37.8397C188.344 37.8397 189.159 36.9099 189.159 35.0506V19.848C189.159 18.0018 188.344 17.0786 186.717 17.0786C185.075 17.0786 184.254 18.0018 184.254 19.848V35.0506Z" fill="white"/>
</g>
<defs>
<clipPath id="clip0_1_5">
<rect width="194" height="29" fill="white" transform="translate(0 13)"/>
</clipPath>
</defs>
</svg>
