<svg width="387" height="62" viewBox="0 0 387 62" fill="none" xmlns="http://www.w3.org/2000/svg">
<path d="M0.96582 61L10.582 0.783203H24.4395L34.0557 61H24.5234L22.8857 50.082H11.2539L9.61621 61H0.96582ZM12.4717 41.8936H21.584L17.0488 11.4492L12.4717 41.8936ZM36.3232 61L46.9053 30.0518L36.9951 0.783203H46.8213L53.96 22.9971L61.2666 0.783203H70.043L60.1328 30.0518L70.7148 61H60.7207L52.9941 37.1904L45.1836 61H36.3232ZM75.418 61V0.783203H84.8662V61H75.418ZM90.9971 46.5547V15.2285C90.9971 10.4134 92.2428 6.6901 94.7344 4.05859C97.2259 1.42708 100.781 0.111328 105.4 0.111328C110.02 0.111328 113.561 1.42708 116.024 4.05859C118.516 6.6901 119.762 10.4134 119.762 15.2285V46.5547C119.762 51.3698 118.516 55.0931 116.024 57.7246C113.561 60.3561 110.02 61.6719 105.4 61.6719C100.781 61.6719 97.2259 60.3561 94.7344 57.7246C92.2428 55.0931 90.9971 51.3698 90.9971 46.5547ZM100.487 47.1426C100.487 51.1178 102.125 53.1055 105.4 53.1055C108.648 53.1055 110.271 51.1178 110.271 47.1426V14.6406C110.271 10.6934 108.648 8.71973 105.4 8.71973C102.125 8.71973 100.487 10.6934 100.487 14.6406V47.1426ZM125.809 61V0.783203H138.952L145.923 43.5312L152.39 0.783203H165.533V61H156.589V17.832L150.038 61H141.094L134.039 18.4199V61H125.809Z"
      fill="#ffffff"/>
<path d="M183.17 61V52.3916C183.87 52.4476 184.962 52.4756 186.445 52.4756C188.153 52.4756 189.483 52.0557 190.435 51.2158C191.386 50.376 191.862 48.8783 191.862 46.7227V0.783203H201.353V46.0508C201.353 56.1289 196.817 61.168 187.747 61.168C185.731 61.168 184.206 61.112 183.17 61ZM207.777 61V0.783203H222.727C227.402 0.783203 230.915 2.05697 233.267 4.60449C235.646 7.15202 236.836 10.8473 236.836 15.6904V46.1348C236.836 50.9779 235.646 54.6732 233.267 57.2207C230.915 59.7402 227.402 61 222.727 61H207.777ZM217.226 52.3916H222.559C224.126 52.3916 225.316 51.9437 226.128 51.0479C226.968 50.124 227.388 48.6263 227.388 46.5547V15.2285C227.388 13.1569 226.968 11.6732 226.128 10.7773C225.316 9.85352 224.126 9.3916 222.559 9.3916H217.226V52.3916ZM242.883 61V0.783203H252.331V27.0283L264.719 0.783203H274.167L261.023 27.6162L274.167 61H264.467L255.271 37.0225L252.331 42.5234V61H242.883ZM291.846 61V0.783203H305.787C310.462 0.783203 313.976 2.05697 316.327 4.60449C318.707 7.15202 319.896 10.8473 319.896 15.6904V23.501C319.896 28.3441 318.707 32.0394 316.327 34.5869C313.976 37.1064 310.462 38.3662 305.787 38.3662H301.294V61H291.846ZM301.294 29.7998H305.787C307.355 29.7998 308.517 29.3659 309.272 28.498C310.028 27.6302 310.406 26.1605 310.406 24.0889V15.0605C310.406 12.9889 310.028 11.5332 309.272 10.6934C308.517 9.82552 307.355 9.3916 305.787 9.3916H301.294V29.7998ZM324.264 61V0.783203H338.541C343.384 0.783203 346.925 1.91699 349.165 4.18457C351.433 6.45215 352.566 9.9375 352.566 14.6406V19.3857C352.566 25.5726 350.495 29.6458 346.352 31.6055C348.619 32.5573 350.229 34.097 351.181 36.2246C352.16 38.3522 352.65 41.0817 352.65 44.4131V53.6934C352.65 57.0247 352.986 59.4603 353.658 61H344.042C343.818 60.3001 343.664 59.7822 343.58 59.4463C343.496 59.0824 343.398 58.4105 343.286 57.4307C343.202 56.4229 343.16 55.1491 343.16 53.6094V44.1611C343.16 41.3896 342.67 39.416 341.69 38.2402C340.711 37.0645 339.143 36.4766 336.987 36.4766H333.712V61H324.264ZM333.712 27.9102H337.407C339.283 27.9102 340.697 27.4342 341.648 26.4824C342.6 25.5026 343.076 23.8509 343.076 21.5273V15.6064C343.076 13.4508 342.698 11.8831 341.942 10.9033C341.187 9.89551 339.969 9.3916 338.289 9.3916H333.712V27.9102ZM358.067 46.5547V15.2285C358.067 10.4134 359.313 6.6901 361.805 4.05859C364.296 1.42708 367.852 0.111328 372.471 0.111328C377.09 0.111328 380.631 1.42708 383.095 4.05859C385.586 6.6901 386.832 10.4134 386.832 15.2285V46.5547C386.832 51.3698 385.586 55.0931 383.095 57.7246C380.631 60.3561 377.09 61.6719 372.471 61.6719C367.852 61.6719 364.296 60.3561 361.805 57.7246C359.313 55.0931 358.067 51.3698 358.067 46.5547ZM367.558 47.1426C367.558 51.1178 369.195 53.1055 372.471 53.1055C375.718 53.1055 377.342 51.1178 377.342 47.1426V14.6406C377.342 10.6934 375.718 8.71973 372.471 8.71973C369.195 8.71973 367.558 10.6934 367.558 14.6406V47.1426Z"
      fill="#ffffff"/>
</svg>
