<svg width="51" height="49" viewBox="0 0 51 49" fill="none" xmlns="http://www.w3.org/2000/svg">
<path fill-rule="evenodd" clip-rule="evenodd" d="M2.44907 47.2745H48.8292V0.868005H2.44907V47.2745ZM1.59473 0.0129395H49.6706V48.1166H1.59473V0.0129395ZM8.99947 20.4956H7.86035V17.1919H15.2905V20.4956H14.1384V27.6211H15.2905V30.9247H7.86035V27.6211H8.99947V20.4956ZM22.5262 20.5085V22.4778H24.4938C25.0245 22.4778 25.4776 22.0243 25.4776 21.4932C25.4776 20.962 25.0374 20.5085 24.5067 20.5085H22.5262ZM22.5262 27.6599H24.5844L24.5714 27.647C25.1928 27.647 25.607 27.1417 25.607 26.6235C25.607 26.1053 25.1669 25.6 24.5844 25.6H22.5262V27.6599ZM30.1246 20.6251C30.1246 22.9312 28.5325 23.7085 28.2736 23.7863V23.8381C29.6716 24.3822 30.5906 25.5612 30.5906 27.064C30.5906 29.2794 28.8172 30.9247 27.0568 30.9247H16.6494V27.6211H17.8015V20.4956H16.6494V17.1919H26.3707C28.7525 17.1919 30.1246 18.8502 30.1246 20.6251ZM36.8948 22.4778C36.3252 22.4778 35.911 21.9726 35.911 21.4932C35.911 20.9491 36.364 20.5086 36.8948 20.5086H38.8623V21.4673H43.0952V17.2049H36.0275C33.3609 17.2049 31.2769 18.7855 31.2769 21.4673C31.2769 23.7992 33.1667 25.5871 35.5097 25.5871H38.3057C38.9012 25.5871 39.3413 26.0924 39.3413 26.6236C39.3413 27.1547 38.9012 27.647 38.3057 27.647H36.2475V26.6494H31.9758V30.9248H39.7425C42.0984 30.9248 44.0142 29.0073 44.0142 26.6494C44.0142 24.2916 42.0855 22.4649 39.7296 22.4649H36.8948V22.4778Z" fill="white"/>
</svg>
